<svg xmlns="http://www.w3.org/2000/svg" viewBox="0 0 1000 268.2"><g fill="#474BA5"><path d="M234.8 26.5L209.5 1.2c-1.6-1.6-4.2-1.6-5.8-.1-10.2 9.7-20.5 15.5-51 15.5H55.1c-2.3 0-4.2 1.9-4.2 4.2V118c0 2.3-1.9 4.2-4.2 4.2H4.2c-2.3 0-4.2 1.9-4.2 4.2v38c0 2.3 1.9 4.2 4.2 4.2h42.6c2.3 0 4.2 1.9 4.2 4.2v83.7c0 2.3 1.9 4.2 4.2 4.2h38c2.3 0 4.2-1.9 4.2-4.2v-83.7c0-2.3 1.9-4.2 4.2-4.2h71.2c2.3 0 4.2-1.9 4.2-4.2v-38c0-2.3-1.9-4.2-4.2-4.2h-71.2c-2.3 0-4.2-1.9-4.2-4.2V67.1c0-2.3 1.9-4.2 4.2-4.2h61.7c32.1 0 50.8-11.3 71.5-30.5 1.6-1.5 1.6-4.3 0-5.9z"></path><path d="M888.5 8.3h-.1-.1c-19.5 0-36.4 3.8-50.6 10.7-8.1-5.6-18.9-10.7-31.6-10.7-32.5 0-63 15.4-81 53.9V16.9c0-4.8-3.9-8.7-8.7-8.7h-14.7c-32.5 0-60.9 18.5-74.9 54.2V11c0-1.5-1.2-2.7-2.7-2.7h-20.6c-32.7 0-62.5 20.3-75.2 54.9V11.4c0-1.8-1.5-3.2-3.3-3.1h.1-20.9c-31.5 0-71.3 16.8-86.9 63.3-16.7-38-49.6-63.2-98.7-63.2h-.1-.1c-76.2 0-111.5 57.8-111.5 129.9 0 83.5 35.8 129.9 111.5 129.9h.2c73.9 0 111.5-46.4 111.5-129.9 0-53.3 30.6-78.5 49.9-79.6.8 0 1.4.5 1.4 1.3v196.5c0 2.3 1.9 4.2 4.2 4.2h38.3c2.3 0 4.2-1.9 4.2-4.2v-53.2C528.3 84.1 569.5 62 578.4 59c.8-.3 1.7.4 1.7 1.2v196.1c0 2.3 1.9 4.2 4.2 4.2h38.3c2.3 0 4.2-1.9 4.2-4.2v-53.2c0-119.9 39.7-141.6 49.9-144.2.8-.2 1.6.4 1.6 1.3v196.1c0 2.3 1.9 4.2 4.2 4.2h38.3c2.3 0 4.2-1.9 4.2-4.2v-53.2c0-120.4 39.5-144.6 57.6-144.6 4.1 0 8 1.1 11.5 2.7-11.7 21.5-17.4 48.1-17.4 77 0 83.5 35.8 129.9 111.5 129.9h.2c73.9 0 111.5-46.4 111.5-129.9.1-72.1-37.2-129.9-111.4-129.9zM318.6 221.5c-44.5-.1-61.7-37.4-61.7-83.2S273.7 55 318.6 55c44.9.1 61.7 37.4 61.7 83.2s-17.1 83.2-61.7 83.3zm569.8 0c-44.5-.1-61.7-37.4-61.7-83.2S843.5 55 888.4 55c44.9.1 61.7 37.4 61.7 83.2s-17.2 83.2-61.7 83.3z"></path></g></svg>