<svg xmlns="http://www.w3.org/2000/svg" width="1083"
  height="622"
              viewBox="0 0 1083 622" >
  <g id="Artboard" fill="none" fill-rule="evenodd" stroke="none" stroke-width="1">
    <path id="Shape-11-path" stroke="#474BA5" stroke-linecap="round" stroke-linejoin="round" stroke-width="1.5" d="M267.160064,301.782086 C250.379519,295.505562 244.557698,255.47152 244.557698,255.47152 C328.802878,244.105922 244.557698,80.9163064 244.557698,80.9163064 C244.557698,80.9163064 215.619821,22.2223282 177.777981,36.1324618 C139.936142,50.0425954 151.408555,111.111474 164.250808,146.395716 C164.250808,146.395716 192.846225,215.098204 204.147408,241.731022 C204.489868,242.409564 226.578543,291.434304 216.989661,303.478444 C217.006784,303.478444 241.66391,328.245268 267.160064,301.782086 Z"></path>
    <path id="Path" fill="#F5933C" fill-rule="nonzero" d="M47.1187591,65.1017757 C-148.636792,221.70631 322.132001,865.761672 427.585101,514.806196 C533.0382,163.850722 242.874311,-91.5027587 47.1187591,65.1017757 Z" opacity=".03" transform="rotate(180 225 318)"></path>
    <path id="Shape-12" stroke="#474BA5" stroke-linecap="round" stroke-linejoin="round" stroke-width="1.5" d="M207.137711,126.619462 C191.996771,130.90918 203.517052,156.647488 217.835115,155.98753 C232.153179,155.327574 227.05134,121.009831 207.137711,126.619462 Z"></path>
    <path id="Shape-13" fill="#474BA5" fill-rule="nonzero" d="M206,126.022887 L219.27957,156 C219.27957,156 230.637097,151.741888 223.822581,133.857814 C220.502688,125.171264 206,126.022887 206,126.022887 Z"></path>
    <path id="Shape-14" stroke="#474BA5" stroke-linecap="round" stroke-linejoin="round" stroke-width="1.5" d="M241.137711,120.656368 C225.996771,124.940698 237.517052,150.646674 251.835115,149.987546 C266.153178,148.998856 261.05134,114.889002 241.137711,120.656368 Z"></path>
    <path id="Shape-15" fill="#474BA5" fill-rule="nonzero" d="M242,120.581535 L255.238254,150 C255.238254,150 267.083008,145.965468 259.418755,128.818705 C256.730812,122.105664 249.144076,118.517966 242,120.581535 Z"></path>
    <path id="Shape-16" stroke="#474BA5" stroke-linecap="round" stroke-linejoin="round" stroke-width="1.5" d="M256.705722,190.118152 C252.130433,196.4185 242.640945,196.4185 236.540559,193.864304 M108.263012,153.508026 L257.552998,106 M268.059216,301.821608 C268.059216,301.821608 366.851568,315.443982 386,383.896404 M218.408859,303.524406 C218.408859,303.524406 34.7379888,381.546546 84.5747478,442.847222 C117.799254,483.714342 163.731353,517.441066 222.371047,544.027396 M153.846447,401.775768 C153.846447,401.775768 228.406712,518.946882 236.540559,600"></path>
    <path id="Shape-17" stroke="#474BA5" stroke-linecap="round" stroke-linejoin="round" stroke-width="1.5" d="M328,340 C328,340 365.716746,364.664452 361.70061,438.317608 C358.906778,490.878406 341.79455,556.366778 345.461456,596"></path>
    <path id="Shape-18" stroke="#474BA5" stroke-linecap="round" stroke-linejoin="round" stroke-width="1.5" d="M312,198 C329.668862,213.880234 396,280.928194 396,392.524194 C396,433.518626 361.78695,452 361.78695,452"></path>
    <path id="Shape-19" stroke="#474BA5" stroke-width="1.5" d="M279.167896,227.94694 L300.52011,229.97427 C302.715834,230.142778 304.894484,229.479114 306.620742,228.115884 C308.314088,226.73547 309.35726,224.716678 309.501596,222.540728 L317.974698,119.653768 C318.280004,116.254959 315.787572,113.243063 312.38245,112.896004 L278.303638,110.023954 C274.58014,109.716316 271.282166,112.406412 270.84731,116.105942 L270,138.406564 C270,138.406564 290.860774,202.605324 279.167896,227.94694 Z M298,121.50855 C293.96938,121.098595 290.636046,120.759562 288,120.49145"></path>
    <path id="Shape-20" stroke="#474BA5" stroke-linecap="round" stroke-linejoin="round" stroke-width="1.5" d="M265.071686,248.33615 C265.071686,248.33615 291.622422,266.021192 306.769956,246.295568 C306.769956,246.295568 347.276848,300.030886 350,332 M196.805661,115.868389 L244.801221,100.564026 C244.801221,100.564026 241.744183,95.169813 237.169088,88.9136682 C236.502444,88.0020762 235.803569,87.0721836 235.077224,86.1380124 C232.703719,83.0853846 230.036886,79.9870674 227.242859,77.3323216 C214.438683,65.1664264 198.963295,62.3160216 196.805661,115.868389 Z M166,142.225902 L182.168717,136.444254 L171.786699,154.63944 L184.381278,151.068422 L174.509851,166.372786"></path>
    <path id="Shape-21-path" stroke="#474BA5" stroke-linecap="round" stroke-linejoin="round" stroke-width="1.5" d="M204,312.570814 C204,312.570814 245.153226,351.321768 288,306 M218,98 C218,98 230.158311,42.522252 282,50.8522442 M228,97.9999999 C228,97.9999999 246.632588,65.441043 282,73.1931756 M316,230 C316,230 311.625,240.44898 306,246"></path>
    <path id="Path" stroke="#474BA5" stroke-linecap="round" stroke-linejoin="round" stroke-width="1.5" d="M316,259.058718 C316,259.058718 364.456022,286.158522 351.93216,246"></path>
    <path id="Path" fill="#EBBA63" fill-rule="nonzero" d="M733.024332,181.047174 C364.505722,261.711096 200.702252,654.876328 742.641382,619.790246 C1284.58051,584.704166 1101.54294,100.383252 733.024332,181.047174 Z" opacity=".05" transform="matrix(-1 0 0 1 1477 0)"></path>
    <path id="Shape-11" stroke="#474BA5" stroke-linecap="round" stroke-linejoin="round" stroke-width="1.5" d="M978,329.028746 C978,329.028746 970.285714,313.903864 952.8,297.759326 C949.714286,294.870302 946.971428,295.38013 947.828572,300.478406 M957.428572,330.048402 C955.044586,328.367246 952.036402,327.8081 949.2,328.51892 M951.085714,315.603288 C951.085714,315.603288 950.4,326.479608 952.628572,328.179034 M923.657142,363.86696 C923.657142,363.86696 929.485714,382.050808 951.771428,379.331728 M900,383.240406 C908.896094,400.547262 926.095072,412.148876 945.6,414"></path>
    <path id="Path-2" stroke="#474BA5" stroke-width="1.5" d="M566 79L588 119"></path>
    <path id="Shape-path" stroke="#474BA5" stroke-linecap="round" stroke-linejoin="round" stroke-width="1.5" d="M788,370.302056 C804.112686,366.010618 833.96324,364.993958 857.57863,403.841904 C857.57863,403.841904 877.040526,409.269694 931.016214,356.51836 C930.151184,352.223646 930.68817,347.765884 932.548646,343.796978 C935.783782,337.690714 941.572972,325.308568 941.572972,317.336502 C941.572972,309.364436 942.083782,298.508856 946,298 M654,220 L743.597796,230.740358 L745.153788,230.927888 C800.147728,239.512826 789.197184,322.716668 781.973622,358"></path>
    <path id="Shape-2" stroke="#474BA5" stroke-linecap="round" stroke-linejoin="round" stroke-width="1.5" d="M763.339622,295.522824 C763.339622,295.522824 763.169812,300.180712 757.90566,298.51718 C752.64151,296.853648 755.35849,284.37716 765.207548,289.035048 C775.056604,293.692938 768.943396,310.394798 754,304.905142"></path>
    <path id="Shape-3-path" stroke="#474BA5" stroke-linecap="round" stroke-linejoin="round" stroke-width="1.5" d="M568,362 L596,346 M586,320 L554,318 M558,342 L590,336"></path>
    <path id="Shape-4" stroke="#474BA5" stroke-linecap="round" stroke-linejoin="round" stroke-width="1.5" d="M808,404 C917.417316,474.669064 911.954984,592 911.954984,592"></path>
    <path id="Path" stroke="#474BA5" stroke-linecap="round" stroke-linejoin="round" stroke-width="1.5" d="M735.482352,528.00206 C722.839216,528.196294 722.839216,544.000001 735.482352,544.000001 C748.125486,544.000001 745.47594,527.790166 735.482352,528.00206 Z M735.482352,564 C722.839216,564.19426 722.839216,580 735.482352,580 C748.125486,580 745.47594,564 735.482352,564 Z M795.51867,530.001734 C782.82711,530.195974 782.82711,546 795.51867,546 C808.210228,546 805.354182,529.807494 795.51867,530.001734 Z M795.51867,566.000922 C782.82711,566.195172 782.82711,582 795.51867,582 C808.210228,582 805.354182,565.85965 795.51867,566.000922 Z"></path>
    <path id="Shape-5-path" stroke="#474BA5" stroke-linecap="round" stroke-linejoin="round" stroke-width="1.5" d="M677.881838,390 L676.118162,402 M686,392 L684,406 M693.927748,394 L692.072252,406 M702,394 L700,408 M712,390 L710,404 M722,388 L720,400 M732,382 L730,396"></path>
    <path id="Shape-6-path" stroke="#474BA5" stroke-linecap="round" stroke-linejoin="round" stroke-width="1.5" d="M716,425.030658 C728.299198,426.381746 746.211658,425.37922 759.13103,412 C759.13103,412 823.371966,457.888994 830,592 M478,290 C468.151802,304.926896 460.214672,330.145588 465.907914,372 M468,312 L490,320"></path>
    <path id="Path" stroke="#474BA5" stroke-linecap="round" stroke-linejoin="round" stroke-width="1.5" d="M684 132L766 140"></path>
    <path id="Shape-7" stroke="#474BA5" stroke-linecap="round" stroke-linejoin="round" stroke-width="1.5" d="M654,221.892382 C668.789492,166.606606 683.453652,129.147827 697.992478,109.516043 C686.47374,114.461408 659.797176,110.041858 663.724506,80.16503 C667.651838,50.2882018 746.149908,72.4570812 729.08511,96.263047 C715.433272,106.563049 683.632396,45.1723066 725.67215,34.940516 C767.711904,24.7087256 781.910024,101.447154 760.910958,96.263047 C749.562868,94.6259606 807.258096,34.9620028 831.473896,57.130882 C855.689698,79.2997614 814.086116,105.008383 795.552498,104.619009 C798.777076,90.4650324 852.399792,91.2416936 849.916364,121.177457 C847.368506,151.889882 771.62777,128.970671 771.62777,128.970671 C760.713364,163.99868 754.430566,197.43236 751.474124,234"></path>
    <path id="Shape-8" stroke="#474BA5" stroke-linecap="round" stroke-linejoin="round" stroke-width="1.5" d="M745.999999,341.424074 C740.696876,381.780122 629.60133,389.753102 603.425244,335.927486 C577.24916,282.101872 654.298636,220 654.298636,220 M660.78514,390 C660.34207,386.447654 660.559602,381.11432 661.437738,374 M516,366 C528.189026,386.25836 555.349216,420.986544 592.110748,406.607386 C615.873578,397.283206 633.594962,385.691456 650,391.3295 M530,506 C477.574468,454.62125 466,372.313846 466,372.313846 C482.364838,365.063248 494.638468,359.6253 502.820888,356"></path>
    <path id="Shape-9" stroke="#474BA5" stroke-linecap="round" stroke-linejoin="round" stroke-width="1.5" d="M898,520 C943.687338,485.761814 952.6225,366.606148 952.6225,366.606148 C952.6225,366.606148 983.30551,354.910926 981.956806,330.842498 C981.451042,319.994756 950.93662,293.044896 950.768032,296.26532"></path>
    <path id="Shape-10-path" stroke="#474BA5" stroke-linecap="round" stroke-linejoin="round" stroke-width="1.5" d="M940.0567,354 C940.0567,354 938.871766,346.5 947.335586,341.142858 C955.799406,335.785714 957.999999,334 957.999999,334 M964.414046,343.999999 C964.414046,343.999999 946.17755,305.760924 948.149062,300.570098 C950.120576,295.379274 969.835708,327.216334 970,332.061102"></path>
    <path id="Rectangle-9" stroke="#474BA5" stroke-width="1.5" d="M477.655378,263.025138 L506.62834,252.506904 C511.07832,250.916124 515.989236,253.194098 517.60035,257.596372 L549.48775,344.11733 C551.095304,348.52088 548.793312,353.380558 544.344622,354.974862 L515.37166,365.493096 C510.92168,367.083876 506.010764,364.805902 504.39965,360.403628 L472.51225,273.88267 C470.904696,269.47912 473.206688,264.619442 477.655378,263.025138 Z"></path>
    <path id="Rectangle-9" stroke="#474BA5" stroke-width="1.5" d="M492.340904,267.829548 C494.372502,266.81375 496.925532,265.537234 500,264 C493.56571,267.217144 491.012678,268.49366 492.340904,267.829548 Z"></path>
    <path id="Path" stroke="#474BA5" stroke-linecap="round" stroke-linejoin="round" stroke-width="1.5" d="M604,432 C604,432 506.341054,474.05763 514.482108,592 M626,256.19867 C626,256.19867 630.81216,250.72734 636.423452,252.276148 C642.034744,253.824954 658,258 658,258"></path>
    <path id="Path" fill="#474BA5" fill-rule="nonzero" d="M650,255.128782 C648.776012,260.142392 644.271246,263.058608 639.938324,261.642334 C635.605404,260.22606 633.085116,255.01361 634.309106,250 L650,255.128782 Z"></path>
    <path id="Path" stroke="#474BA5" stroke-linecap="round" stroke-linejoin="round" stroke-width="1.5" d="M630,264 C636.665782,267.990262 644.583822,269.047042 652,266.936224 M710,280 C710,280 709.210084,271.220708 701.983194,269.389646 C694.756302,267.558584 674,262 674,262"></path>
    <path id="Path" fill="#474BA5" fill-rule="nonzero" d="M680.422788,264 C679.368978,267.796496 680.318198,271.908122 682.901368,274.73616 C685.484538,277.564198 689.294034,278.662388 692.84862,277.603722 C696.403204,276.545056 699.141966,273.49659 700,269.643656 L680.422788,264 Z"></path>
    <path id="Path" stroke="#474BA5" stroke-linecap="round" stroke-linejoin="round" stroke-width="1.5" d="M704,287.996148 C704,287.996148 686.9944,288.561316 676,276 M736,282 C736,282 744.269842,288.807342 750,287.920266 M736,288 C736,288 744.269842,294.807342 750,293.920266 M736,292 C736,292 744.269842,298.807342 750,297.920266 M734,296 C734,296 742.269842,302.807342 748,301.920266 M734,300 C734,300 742.269842,306.807342 748,305.920266 M734,304 C734,304 742.269842,310.807342 748,309.920266 M734,308 C734,308 742.269842,314.807342 748,313.920266 M734,312 C734,312 742.269842,318.807342 748,317.920266 M734,316 C734,316 742.269842,322.807342 748,321.920266 M732,320 C732,320 740.269842,326.807342 746,325.920266 M722,230 C722,230 724.925606,253.573712 736.243522,264.51865 C741.52633,269.570158 756.689328,283.040852 782,271.371864 M730,236 C730,236 732.369488,265.894736 758,268 M736,230 C736,230 738.89378,256.926028 754,253.73765 M744,232 C744,232 744.48555,252.361518 768,249.77248 M754.002342,234 C754.002342,234 753.637984,243.225092 762.000001,244 M750,259.24688 C750,259.24688 764.677144,262.93171 776,254 M764,265.213986 C764,265.213986 774.72165,267.625772 780,264"></path>
    <path id="Path" stroke="#474BA5" stroke-linecap="round" stroke-linejoin="round" stroke-width="1.5" d="M784,278.646142 C779.962838,286.46435 738.206082,290.821192 721.41554,254.141056 C717.492284,245.925078 714.983896,237.082578 714,228 M772,292 C772,292 785.635416,289.867704 786,288 M776,300.161304 C781.991704,298.815106 787.035568,305.935782 785.816916,320 M642,231.923308 C642,231.923308 668.84863,233.339552 684,224 M640,222 C640,222 651.187846,226.338434 670,222.235784"></path>
    <path id="Path" stroke="#474BA5" stroke-width="1.5" d="M686.058274,426 C670.861478,423.715698 657.087668,415.682386 647.72435,403.507602 C644.609332,398.898376 645.829048,392.673824 650.460702,389.543226 C655.092358,386.412628 661.41366,387.540106 664.64213,392.072648 C671.479312,400.52063 681.628738,405.706916 692.56501,406.341042 C714.968252,407.926418 742.53227,392.275036 772.283638,361.174662 C776.172016,357.108806 782.663766,356.923806 786.78337,360.761452 C790.902974,364.599098 791.09042,371.006154 787.202044,375.07201 C759.619962,403.822298 733.553208,420.66748 709.385164,425.348666"></path>
    <path id="Shape-24" stroke="#474BA5" stroke-width="1.5" d="M688.949294,436 C674.533586,446.172892 635.379698,479.1839 648.733662,530 C648.733662,530 695.237492,513.840884 700.000001,463.428192"></path>
    <path id="Shape-25" stroke="#474BA5" stroke-width="1.5" d="M705.289826,436 C720.716184,443.922186 763.180098,470.604486 757.476704,522 C757.476704,522 694.811252,509.552246 696.017184,439.911176"></path>
    <circle id="Oval" cx="698" cy="428" r="12" stroke="#474BA5" stroke-width="1.5"></circle>
    <path id="Path" stroke="#474BA5" stroke-linecap="round" stroke-linejoin="round" stroke-width="1.5" d="M647.875106,311.570156 C647.875106,311.570156 655.065842,298.96758 669.783722,311.675178 C680.73803,321.148114 683.029814,343.91677 698,338.161592 C698,338.161592 676.217538,348.22265 669.783722,335.767104 C663.349906,323.311558 639.149506,326.672244 647.875106,311.570156 Z"></path>
    <path id="Path-3" stroke="#474BA5" stroke-width="1.5" d="M628,318 C628.143584,325.69178 631.983406,331.155966 639.519468,334.392562 C647.05553,337.629156 654.54904,335.978062 662,329.439276"></path>
    <path id="Path-4" fill="#474BA5" fill-rule="nonzero" d="M634,316.373804 C635.5,320.379296 637.75,322.7544 640.75,323.499112 C643.75,324.243824 647.5,324.158116 652,323.241988 C649.705074,321.394814 648.205074,319.980818 647.5,319 C646.243004,317.251414 646.064606,314.795768 645.25,314"></path>
    <path id="Path" stroke="#474BA5" stroke-linecap="round" stroke-linejoin="round" stroke-width="1.5" d="M646.813526,304.146998 C646.813526,304.146998 649.711908,310.030792 646.448544,314.487546 C644.301596,317.429442 640.909416,317.91244 636.615518,317.890486 C631.194846,318.190418 625.758368,317.873796 620.406052,316.946444 C613.084954,315.34377 607.996686,311.062652 610.76625,304.146998 C612.775198,307.584504 616.473062,309.61025 620.384582,309.416068 C623.8157,309.209958 627.074064,307.807432 629.616464,305.442312 C633.030112,302.500414 642.347872,295.562808 646.813526,304.146998 Z"></path>
    <path id="Path" stroke="#474BA5" stroke-linecap="round" stroke-linejoin="round" stroke-width="1.5" d="M646,314 C646,314 665.47319,320.428572 673.56538,327.585714 C685.270932,337.871428 692,338 692,338 M650,308 C650,308 670.514032,315.388038 678,324 M610,306 C610,306 613.033352,314.248538 627.210064,311.402792 C641.386776,308.557046 646,310.722288 646,310.722288 M646,304 L626,308 M662.534884,252 L634,288.336768 L664,300 C664,300 658.610466,280.220248 650.238372,291.30373 M680,256 C687.271186,260.760148 702.525424,266 714,266 M680,252 C687.271186,256.669684 702.525424,260 714,260 M682,248 C689.271186,252.526316 704.525424,254 716,254 M622,240 C629.880318,243.332672 639.861788,246 648,246 M626,236 C633.880318,239.332672 643.861788,242 652,242 M630,234 C637.880318,237.332672 647.861788,240 656,240"></path>
    <path id="path-1" fill="#474BA5" fill-rule="nonzero" d="M357.52605,16.093273 L357.582018,16.093273 L362.42334,6.1215376 L365.249776,6.1215376 L365.305746,16.093273 L365.361714,16.093273 L370.119084,6.1215376 L373.477226,6.1215376 L366.341172,20.054268 L363.094968,20.054268 L362.871092,10.4149237 L362.815124,10.4149237 L358.001786,20.054268 L354.727598,20.054268 L354,6.1215376 L357.302174,6.1215376 L357.52605,16.093273 Z M380.80917,8.28208028 C379.57785,8.28208028 378.514438,9.00226116 377.758856,10.3318259 C377.53498,10.7750141 377.367074,11.2459016 377.171182,11.7998869 L382.935992,11.7998869 C383.04793,11.495195 383.131884,11.1628038 383.131884,10.8027134 C383.131884,9.22385528 382.292348,8.28208028 380.80917,8.28208028 Z M382.656148,15.6223855 L385.482584,16.4533635 C384.475142,19.0016959 382.348318,20.3866592 379.521882,20.3866592 C375.911878,20.3866592 373.561178,18.0599209 373.561178,14.4313171 C373.561178,12.5200678 374.036916,10.6919163 374.93242,9.22385528 C376.247692,7.00791408 378.430486,5.78914642 381.033046,5.78914642 C384.363204,5.78914642 386.32212,7.81119276 386.32212,10.9966083 C386.32212,11.9660825 386.126228,12.8247598 385.76243,13.683437 L376.863352,13.683437 L376.863352,14.1820237 C376.863352,16.4810627 377.870794,17.8106275 379.661804,17.8106275 C381.144984,17.8106275 382.124442,17.0904466 382.656148,15.6223855 Z M399.838642,20.3866592 C396.396546,20.3866592 394.045846,18.6693047 393.849956,16.0101752 L396.928252,15.5115885 C397.068176,17.0904466 398.159572,18.0322216 399.866626,18.0322216 C401.321822,18.0322216 402.217326,17.3674392 402.217326,16.1763708 C402.217326,15.7608819 402.04942,15.4007914 401.74159,15.0960995 C401.405776,14.8191068 400.678178,14.4867157 399.558798,14.1266252 C397.96368,13.6003392 396.928252,13.0740531 396.424532,12.4923686 C395.892826,11.910684 395.640964,11.1905031 395.640964,10.3318259 C395.640964,8.9745619 396.144686,7.89429056 397.180114,7.03561334 C398.187556,6.20463538 399.502828,5.78914642 401.12593,5.78914642 C404.512058,5.78914642 406.470974,7.36800452 406.470974,10.027134 L403.47663,10.2764274 C403.47663,8.94686264 402.581126,8.11588468 401.12593,8.11588468 C399.810658,8.11588468 398.915154,8.8083663 398.915154,9.88863764 C398.915154,10.6365178 399.306936,11.0520068 401.517714,11.7998869 C403.140816,12.326173 404.232212,12.8801583 404.763918,13.4618428 C405.295624,14.0435274 405.575468,14.7914076 405.575468,15.6777841 C405.575468,17.0627473 405.043764,18.1984172 403.980352,19.0570944 C402.888956,19.9434709 401.517714,20.3866592 399.838642,20.3866592 Z M413.746948,17.6444319 C414.50253,17.6444319 415.174158,17.3951385 415.98571,16.8411532 L416.069664,19.3063878 C415.174158,19.9988694 413.99881,20.3866592 412.683536,20.3866592 C410.248884,20.3866592 408.905626,19.22329 408.905626,17.1181458 C408.905626,16.8134539 408.961596,16.4810627 408.98958,16.1209723 L410.304852,8.66986998 L408.401906,8.66986998 L408.849658,6.1215376 L410.78059,6.1215376 L411.312296,3.15771622 L414.81036,2.71452798 L414.1947,6.1215376 L417.692766,6.1215376 L417.245014,8.66986998 L413.746948,8.66986998 L412.45966,15.7331826 C412.431676,16.0655738 412.403692,16.2594686 412.403692,16.3702657 C412.403692,17.2289429 412.851444,17.6444319 413.746948,17.6444319 Z M422.36618,14.4313171 C422.36618,16.508762 423.373624,17.6998304 425.080678,17.6998304 C426.787734,17.6998304 428.103006,16.3148672 428.55076,14.0158282 C428.914558,12.1045789 429.026496,11.384398 429.026496,11.0243075 C429.026496,9.4454494 427.991068,8.36517806 426.423936,8.36517806 C425.164632,8.36517806 424.045252,9.11305822 423.261686,10.5257207 C422.67401,11.5505936 422.36618,12.9632561 422.36618,14.4313171 Z M428.130992,17.3951385 C427.263472,19.3063878 425.696338,20.3866592 423.709438,20.3866592 C422.282226,20.3866592 421.106878,19.8603731 420.211372,18.7801018 C419.287884,17.7275297 418.84013,16.3425664 418.84013,14.625212 C418.84013,12.6031656 419.343852,10.6365178 420.32331,9.08535896 C421.55463,6.98021482 423.513546,5.78914642 425.724322,5.78914642 C427.655254,5.78914642 429.166418,6.86941776 429.586186,8.4205766 L430.705568,6.1215376 L433.39208,6.1215376 L431.517118,16.5918598 C431.489134,16.8411532 431.46115,16.9519503 431.46115,17.0627473 C431.46115,17.5890334 431.740994,17.866026 432.216732,17.866026 C432.52456,17.866026 432.748438,17.8106275 433.056266,17.6998304 L432.664484,19.8603731 C432.132778,20.1096664 431.46115,20.275862 430.78952,20.275862 C429.11045,20.275862 428.103006,19.3617863 428.103006,17.8106275 C428.103006,17.5890334 428.103006,17.5059356 428.130992,17.3951385 Z M439.772552,6.1215376 L440.779994,16.4810627 L440.835964,16.4810627 L446.600774,6.1215376 L450.098838,6.1215376 L441.087824,21.10684 C440.024412,22.8518938 439.044954,24.0983606 438.121464,24.8185416 C437.197976,25.5110232 436.10658,25.8711136 434.903246,25.8711136 C433.783864,25.8711136 432.608514,25.483324 432.132778,24.9293386 L433.19619,22.464104 C433.559988,22.9349916 434.287586,23.2396834 434.93123,23.2396834 C436.078594,23.2396834 437.086038,22.3810062 438.289372,20.275862 L436.41441,6.1215376 L439.772552,6.1215376 Z M458.270318,9.19615602 C459.58559,6.98021482 461.68443,5.78914642 464.259006,5.78914642 C467.869008,5.78914642 470.16374,8.06048616 470.16374,11.7444884 C470.16374,13.7388355 469.688002,15.566987 468.820482,16.9796495 C467.477226,19.1955907 465.40637,20.3866592 462.80381,20.3866592 C459.193808,20.3866592 456.899078,18.0876201 456.899078,14.4313171 C456.899078,12.4646693 457.374814,10.6365178 458.270318,9.19615602 Z M460.313188,14.3205201 C460.313188,16.5364613 461.236678,17.8383267 462.915748,17.8383267 C464.119084,17.8383267 465.126526,17.1181458 465.882108,15.7885811 C466.441798,14.7083098 466.777612,13.2956473 466.777612,11.8552855 C466.777612,9.611645 465.854124,8.3374788 464.175052,8.3374788 C462.943734,8.3374788 461.964276,9.02996042 461.208694,10.3872244 C460.649002,11.4120972 460.313188,12.852459 460.313188,14.3205201 Z M483.120572,11.7721877 C483.120572,9.6947428 482.113128,8.5036744 480.434058,8.5036744 C478.671034,8.5036744 477.327776,9.88863764 476.880024,12.1876767 C476.628164,13.4341436 476.404286,14.7083098 476.404286,15.1791973 C476.404286,16.7303561 477.495684,17.8383267 479.0908,17.8383267 C480.350104,17.8383267 481.4415,17.1181458 482.253052,15.6777841 C482.812742,14.5975127 483.120572,13.2402487 483.120572,11.7721877 Z M474.529324,6.1215376 L477.35576,6.1215376 L477.327776,8.83606558 C478.22328,6.95251554 479.930336,5.78914642 481.8053,5.78914642 C484.743674,5.78914642 486.646622,8.03278688 486.646622,11.5505936 C486.646622,13.5726399 486.114916,15.5392877 485.191426,17.0904466 C483.960108,19.1955907 482.00119,20.3866592 479.790414,20.3866592 C477.859482,20.3866592 476.320334,19.3340871 475.900566,17.8106275 L474.529324,25.5387224 L471.059244,25.5387224 L474.529324,6.1215376 Z M496.077404,8.28208028 C494.846086,8.28208028 493.782674,9.00226116 493.027092,10.3318259 C492.803216,10.7750141 492.635308,11.2459016 492.439416,11.7998869 L498.204228,11.7998869 C498.316166,11.495195 498.40012,11.1628038 498.40012,10.8027134 C498.40012,9.22385528 497.560584,8.28208028 496.077404,8.28208028 Z M497.924382,15.6223855 L500.750818,16.4533635 C499.743376,19.0016959 497.616552,20.3866592 494.790116,20.3866592 C491.180114,20.3866592 488.829414,18.0599209 488.829414,14.4313171 C488.829414,12.5200678 489.30515,10.6919163 490.200654,9.22385528 C491.515928,7.00791408 493.69872,5.78914642 496.30128,5.78914642 C499.631438,5.78914642 501.590354,7.81119276 501.590354,10.9966083 C501.590354,11.9660825 501.394462,12.8247598 501.030664,13.683437 L492.131586,13.683437 L492.131586,14.1820237 C492.131586,16.4810627 493.13903,17.8106275 494.930038,17.8106275 C496.413218,17.8106275 497.392676,17.0904466 497.924382,15.6223855 Z M513.45579,10.2487281 C513.45579,9.16845676 512.868116,8.61447146 511.748734,8.61447146 C509.845788,8.61447146 508.50253,10.0548332 508.054778,12.7139627 L506.739506,20.054268 L503.269426,20.054268 L505.760048,6.1215376 L508.586484,6.1215376 L508.5585,8.8914641 C509.537958,6.92481628 511.300982,5.78914642 513.343852,5.78914642 C515.666568,5.78914642 517.037808,7.0633126 517.037808,9.25155456 C517.037808,9.66704352 517.009824,10.0825325 516.92587,10.442623 L515.80649,16.5918598 C515.778506,16.8411532 515.75052,16.9519503 515.75052,17.0627473 C515.75052,17.5890334 516.030366,17.866026 516.506104,17.866026 C516.813932,17.866026 517.037808,17.8106275 517.345638,17.6998304 L516.953856,19.8603731 C516.42215,20.1096664 515.722536,20.275862 515.050908,20.275862 C513.287884,20.275862 512.252456,19.3063878 512.252456,17.6444319 C512.252456,17.33974 512.308426,17.0627473 512.33641,16.7303561 L513.371836,11.0520068 C513.45579,10.7196156 513.45579,10.4703222 513.45579,10.2487281 Z M526.496576,14.9022046 L528.06371,6.1215376 L531.53379,6.1215376 L530.022626,14.6806105 C529.938672,15.040701 529.938672,15.3730921 529.938672,15.6223855 C529.938672,16.9519503 530.554332,17.6721311 531.78565,17.6721311 C533.492706,17.6721311 534.69604,16.3425664 535.115808,13.9881289 L536.515034,6.1215376 L540.0131,6.1215376 L538.138136,16.5918598 C538.110152,16.8411532 538.082168,16.9519503 538.082168,17.0627473 C538.082168,17.5890334 538.362012,17.866026 538.83775,17.866026 C539.14558,17.866026 539.369456,17.8106275 539.677284,17.6998304 L539.285502,19.8603731 C538.753796,20.1096664 538.082168,20.275862 537.410538,20.275862 C535.731468,20.275862 534.779994,19.3617863 534.779994,17.8106275 L534.779994,17.3951385 C533.856504,19.3617863 532.289372,20.3866592 530.246502,20.3866592 C527.923786,20.3866592 526.356654,18.7524025 526.356654,16.2871679 C526.356654,15.8439796 526.384638,15.4284907 526.496576,14.9022046 Z M552.382256,10.2487281 C552.382256,9.16845676 551.794582,8.61447146 550.6752,8.61447146 C548.772254,8.61447146 547.428996,10.0548332 546.981244,12.7139627 L545.665972,20.054268 L542.195892,20.054268 L544.686514,6.1215376 L547.51295,6.1215376 L547.484966,8.8914641 C548.464424,6.92481628 550.227448,5.78914642 552.270318,5.78914642 C554.593034,5.78914642 555.964276,7.0633126 555.964276,9.25155456 C555.964276,9.66704352 555.93629,10.0825325 555.852338,10.442623 L554.732956,16.5918598 C554.704972,16.8411532 554.676988,16.9519503 554.676988,17.0627473 C554.676988,17.5890334 554.956832,17.866026 555.43257,17.866026 C555.740398,17.866026 555.964276,17.8106275 556.272104,17.6998304 L555.880322,19.8603731 C555.348616,20.1096664 554.649002,20.275862 553.977374,20.275862 C552.21435,20.275862 551.178922,19.3063878 551.178922,17.6444319 C551.178922,17.33974 551.234892,17.0627473 551.262876,16.7303561 L552.298304,11.0520068 C552.382256,10.7196156 552.382256,10.4703222 552.382256,10.2487281 Z M564.275678,17.6444319 C565.03126,17.6444319 565.702888,17.3951385 566.514438,16.8411532 L566.598392,19.3063878 C565.702888,19.9988694 564.527538,20.3866592 563.212266,20.3866592 C560.777612,20.3866592 559.434356,19.22329 559.434356,17.1181458 C559.434356,16.8134539 559.490324,16.4810627 559.51831,16.1209723 L560.833582,8.66986998 L558.930634,8.66986998 L559.378386,6.1215376 L561.309318,6.1215376 L561.841024,3.15771622 L565.33909,2.71452798 L564.72343,6.1215376 L568.221494,6.1215376 L567.773742,8.66986998 L564.275678,8.66986998 L562.98839,15.7331826 C562.960404,16.0655738 562.93242,16.2594686 562.93242,16.3702657 C562.93242,17.2289429 563.380172,17.6444319 564.275678,17.6444319 Z M571.915452,2.04974562 C571.915452,0.858677218 572.866924,0 574.098244,0 C575.329562,0 576.225066,0.830977954 576.225066,2.02204636 C576.225066,3.24081402 575.273594,4.09949124 574.042274,4.09949124 C572.810956,4.09949124 571.915452,3.26851328 571.915452,2.04974562 Z M569.704674,16.7303561 L571.607622,6.1215376 L575.049718,6.1215376 L573.174754,16.5918598 C573.14677,16.8411532 573.118786,16.9519503 573.118786,17.0627473 C573.118786,17.5890334 573.39863,17.866026 573.874368,17.866026 C574.182198,17.866026 574.406074,17.8106275 574.713902,17.6998304 L574.350104,19.8603731 C573.790414,20.1096664 573.0908,20.275862 572.419172,20.275862 C570.656148,20.275862 569.62072,19.3063878 569.62072,17.6444319 C569.62072,17.33974 569.67669,17.0627473 569.704674,16.7303561 Z M577.680262,16.7303561 L580.646622,0.0553985302 L584.088716,0.0553985302 L581.150342,16.5918598 C581.122358,16.8411532 581.094374,16.9519503 581.094374,17.0627473 C581.094374,17.5890334 581.374218,17.866026 581.849956,17.866026 C582.157786,17.866026 582.381662,17.8106275 582.68949,17.6998304 L582.325692,19.8603731 C581.766002,20.1096664 581.066388,20.275862 580.39476,20.275862 C578.631736,20.275862 577.596308,19.3063878 577.596308,17.6444319 C577.596308,17.33974 577.652278,17.0627473 577.680262,16.7303561 Z M596.12206,16.093273 L596.17803,16.093273 L601.01935,6.1215376 L603.845788,6.1215376 L603.901756,16.093273 L603.957726,16.093273 L608.715094,6.1215376 L612.073236,6.1215376 L604.937184,20.054268 L601.69098,20.054268 L601.467104,10.4149237 L601.411134,10.4149237 L596.597796,20.054268 L593.323608,20.054268 L592.59601,6.1215376 L595.898184,6.1215376 L596.12206,16.093273 Z M619.40518,8.28208028 C618.173862,8.28208028 617.11045,9.00226116 616.354868,10.3318259 C616.130992,10.7750141 615.963084,11.2459016 615.767192,11.7998869 L621.532004,11.7998869 C621.643942,11.495195 621.727896,11.1628038 621.727896,10.8027134 C621.727896,9.22385528 620.88836,8.28208028 619.40518,8.28208028 Z M621.252158,15.6223855 L624.078594,16.4533635 C623.071152,19.0016959 620.944328,20.3866592 618.117892,20.3866592 C614.50789,20.3866592 612.15719,18.0599209 612.15719,14.4313171 C612.15719,12.5200678 612.632926,10.6919163 613.528432,9.22385528 C614.843704,7.00791408 617.026496,5.78914642 619.629056,5.78914642 C622.959214,5.78914642 624.91813,7.81119276 624.91813,10.9966083 C624.91813,11.9660825 624.722238,12.8247598 624.35844,13.683437 L615.459362,13.683437 L615.459362,14.1820237 C615.459362,16.4810627 616.466806,17.8106275 618.257814,17.8106275 C619.740994,17.8106275 620.720452,17.0904466 621.252158,15.6223855 Z M642.800238,5.84454494 C643.136052,5.84454494 643.499852,5.8722442 643.947604,5.98304126 L643.136052,9.50084794 C642.800238,9.30695308 642.212564,9.19615602 641.56892,9.19615602 C639.693956,9.19615602 638.210778,10.7750141 637.763024,13.3233465 L636.55969,20.054268 L633.08961,20.054268 L635.580232,6.1215376 L638.490622,6.1215376 L638.322716,9.39005088 C639.21822,7.1464104 640.869306,5.84454494 642.800238,5.84454494 Z M644.815124,14.9022046 L646.382256,6.1215376 L649.852338,6.1215376 L648.341172,14.6806105 C648.25722,15.040701 648.25722,15.3730921 648.25722,15.6223855 C648.25722,16.9519503 648.872878,17.6721311 650.104198,17.6721311 C651.811254,17.6721311 653.014588,16.3425664 653.434356,13.9881289 L654.833582,6.1215376 L658.331646,6.1215376 L656.456684,16.5918598 C656.4287,16.8411532 656.400714,16.9519503 656.400714,17.0627473 C656.400714,17.5890334 656.68056,17.866026 657.156296,17.866026 C657.464126,17.866026 657.688002,17.8106275 657.995832,17.6998304 L657.604048,19.8603731 C657.072342,20.1096664 656.400714,20.275862 655.729086,20.275862 C654.050014,20.275862 653.098542,19.3617863 653.098542,17.8106275 L653.098542,17.3951385 C652.175052,19.3617863 650.60792,20.3866592 648.56505,20.3866592 C646.242334,20.3866592 644.6752,18.7524025 644.6752,16.2871679 C644.6752,15.8439796 644.703186,15.4284907 644.815124,14.9022046 Z M670.700804,10.2487281 C670.700804,9.16845676 670.113128,8.61447146 668.993748,8.61447146 C667.0908,8.61447146 665.747544,10.0548332 665.299792,12.7139627 L663.98452,20.054268 L660.514438,20.054268 L663.005062,6.1215376 L665.831498,6.1215376 L665.803512,8.8914641 C666.782972,6.92481628 668.545996,5.78914642 670.588866,5.78914642 C672.91158,5.78914642 674.282822,7.0633126 674.282822,9.25155456 C674.282822,9.66704352 674.254838,10.0825325 674.170884,10.442623 L673.051504,16.5918598 C673.023518,16.8411532 672.995534,16.9519503 672.995534,17.0627473 C672.995534,17.5890334 673.27538,17.866026 673.751116,17.866026 C674.058946,17.866026 674.282822,17.8106275 674.590652,17.6998304 L674.198868,19.8603731 C673.667162,20.1096664 672.96755,20.275862 672.295922,20.275862 C670.532896,20.275862 669.49747,19.3063878 669.49747,17.6444319 C669.49747,17.33974 669.553438,17.0627473 669.581424,16.7303561 L670.61685,11.0520068 C670.700804,10.7196156 670.700804,10.4703222 670.700804,10.2487281 Z M684.888956,9.19615602 C686.204228,6.98021482 688.303066,5.78914642 690.877642,5.78914642 C694.487646,5.78914642 696.782376,8.06048616 696.782376,11.7444884 C696.782376,13.7388355 696.306638,15.566987 695.439118,16.9796495 C694.095862,19.1955907 692.025008,20.3866592 689.422448,20.3866592 C685.812444,20.3866592 683.517714,18.0876201 683.517714,14.4313171 C683.517714,12.4646693 683.99345,10.6365178 684.888956,9.19615602 Z M686.931824,14.3205201 C686.931824,16.5364613 687.855314,17.8383267 689.534386,17.8383267 C690.73772,17.8383267 691.745162,17.1181458 692.500744,15.7885811 C693.060434,14.7083098 693.396248,13.2956473 693.396248,11.8552855 C693.396248,9.611645 692.47276,8.3374788 690.793688,8.3374788 C689.56237,8.3374788 688.582912,9.02996042 687.82733,10.3872244 C687.26764,11.4120972 686.931824,12.852459 686.931824,14.3205201 Z M699.077106,14.9022046 L700.64424,6.1215376 L704.11432,6.1215376 L702.603156,14.6806105 C702.519202,15.040701 702.519202,15.3730921 702.519202,15.6223855 C702.519202,16.9519503 703.134862,17.6721311 704.36618,17.6721311 C706.073236,17.6721311 707.27657,16.3425664 707.696338,13.9881289 L709.095564,6.1215376 L712.59363,6.1215376 L710.718666,16.5918598 C710.690682,16.8411532 710.662698,16.9519503 710.662698,17.0627473 C710.662698,17.5890334 710.942542,17.866026 711.41828,17.866026 C711.726108,17.866026 711.949986,17.8106275 712.257814,17.6998304 L711.866032,19.8603731 C711.334326,20.1096664 710.662698,20.275862 709.991068,20.275862 C708.311998,20.275862 707.360524,19.3617863 707.360524,17.8106275 L707.360524,17.3951385 C706.437034,19.3617863 704.869902,20.3866592 702.827032,20.3866592 C700.504316,20.3866592 698.937184,18.7524025 698.937184,16.2871679 C698.937184,15.8439796 698.965168,15.4284907 699.077106,14.9022046 Z M720.541232,17.6444319 C721.296814,17.6444319 721.968442,17.3951385 722.779994,16.8411532 L722.863948,19.3063878 C721.968442,19.9988694 720.793094,20.3866592 719.47782,20.3866592 C717.043168,20.3866592 715.69991,19.22329 715.69991,17.1181458 C715.69991,16.8134539 715.75588,16.4810627 715.783864,16.1209723 L717.099136,8.66986998 L715.19619,8.66986998 L715.643942,6.1215376 L717.574874,6.1215376 L718.10658,3.15771622 L721.604644,2.71452798 L720.988984,6.1215376 L724.48705,6.1215376 L724.039298,8.66986998 L720.541232,8.66986998 L719.253944,15.7331826 C719.22596,16.0655738 719.197976,16.2594686 719.197976,16.3702657 C719.197976,17.2289429 719.645728,17.6444319 720.541232,17.6444319 Z M727.761238,15.8162804 C729.020542,15.8162804 730,16.7857547 730,18.0322216 C730,19.2786885 729.020542,20.275862 727.761238,20.275862 C726.501936,20.275862 725.522476,19.2786885 725.522476,18.0322216 C725.522476,16.7857547 726.501936,15.8162804 727.761238,15.8162804 Z M415.80381,50.044658 C415.80381,52.1221028 416.811254,53.3131712 418.51831,53.3131712 C420.225364,53.3131712 421.540638,51.928208 421.98839,49.629169 C422.352188,47.7179198 422.464126,46.9977388 422.464126,46.6376484 C422.464126,45.0587902 421.4287,43.978519 419.861566,43.978519 C418.602262,43.978519 417.482882,44.726399 416.699316,46.1390616 C416.11164,47.1639344 415.80381,48.576597 415.80381,50.044658 Z M421.568622,53.0084794 C420.701102,54.9197286 419.133968,56 417.147068,56 C415.719858,56 414.544508,55.473714 413.649002,54.3934426 C412.725514,53.3408706 412.277762,51.9559072 412.277762,50.2385528 C412.277762,48.2165066 412.781482,46.2498586 413.76094,44.6986998 C414.99226,42.5935556 416.951176,41.4024872 419.161952,41.4024872 C421.092884,41.4024872 422.604048,42.4827586 423.023816,44.0339174 L424.143198,41.7348784 L426.829712,41.7348784 L424.954748,52.2052006 C424.926764,52.454494 424.89878,52.5652912 424.89878,52.6760882 C424.89878,53.2023742 425.178624,53.4793668 425.654362,53.4793668 C425.962192,53.4793668 426.186068,53.4239684 426.493896,53.3131712 L426.102114,55.473714 C425.570408,55.7230074 424.89878,55.889203 424.22715,55.889203 C422.54808,55.889203 421.540638,54.9751272 421.540638,53.4239684 C421.540638,53.2023742 421.540638,53.1192764 421.568622,53.0084794 Z M439.08693,45.862069 C439.08693,44.7817976 438.499256,44.2278124 437.379874,44.2278124 C435.476928,44.2278124 434.13367,45.6681742 433.685918,48.3273036 L432.370646,55.6676088 L428.900566,55.6676088 L431.391188,41.7348784 L434.217624,41.7348784 L434.18964,44.504805 C435.169098,42.5381572 436.932122,41.4024872 438.974992,41.4024872 C441.297708,41.4024872 442.66895,42.6766534 442.66895,44.8648954 C442.66895,45.2803844 442.640964,45.6958734 442.557012,46.0559638 L441.43763,52.2052006 C441.409646,52.454494 441.381662,52.5652912 441.381662,52.6760882 C441.381662,53.2023742 441.661506,53.4793668 442.137244,53.4793668 C442.445072,53.4793668 442.66895,53.4239684 442.976778,53.3131712 L442.584996,55.473714 C442.05329,55.7230074 441.353676,55.889203 440.682048,55.889203 C438.919024,55.889203 437.883596,54.9197286 437.883596,53.2577728 C437.883596,52.9530808 437.939566,52.6760882 437.96755,52.343697 L439.002978,46.6653476 C439.08693,46.3329564 439.08693,46.083663 439.08693,45.862069 Z M448.909496,50.044658 C448.909496,52.1221028 449.91694,53.3131712 451.59601,53.3131712 C453.359036,53.3131712 454.730276,51.8728094 455.17803,49.629169 C455.541828,47.7179198 455.653766,46.9977388 455.653766,46.6376484 C455.653766,45.0864896 454.56237,43.978519 452.967252,43.978519 C451.707948,43.978519 450.588568,44.726399 449.805002,46.1390616 C449.217326,47.1639344 448.909496,48.576597 448.909496,50.044658 Z M454.730276,53.0084794 C453.862756,54.9197286 452.26764,56 450.280738,56 C447.342364,56 445.383448,53.700961 445.383448,50.2385528 C445.383448,48.2165066 445.887168,46.2498586 446.866626,44.6986998 C448.097946,42.5935556 450.056862,41.4024872 452.26764,41.4024872 C454.170586,41.4024872 455.73772,42.4550594 456.157488,43.978519 L457.640666,35.6687394 L461.054778,35.6687394 L458.116404,52.2052006 C458.08842,52.454494 458.060434,52.5652912 458.060434,52.6760882 C458.060434,53.2023742 458.34028,53.4793668 458.816016,53.4793668 C459.123846,53.4793668 459.347722,53.4239684 459.655552,53.3131712 L459.291754,55.473714 C458.760048,55.7230074 458.060434,55.889203 457.388806,55.889203 C455.709736,55.889203 454.702292,54.9751272 454.702292,53.4239684 C454.702292,53.2023742 454.702292,53.1192764 454.730276,53.0084794 Z M478.852932,45.862069 C478.852932,44.7817976 478.265258,44.2278124 477.145876,44.2278124 C475.24293,44.2278124 473.899672,45.6681742 473.45192,48.3273036 L472.136648,55.6676088 L468.666568,55.6676088 L471.15719,41.7348784 L473.983626,41.7348784 L473.955642,44.504805 C474.9351,42.5381572 476.698124,41.4024872 478.740994,41.4024872 C481.06371,41.4024872 482.43495,42.6766534 482.43495,44.8648954 C482.43495,45.2803844 482.406966,45.6958734 482.323012,46.0559638 L481.203632,52.2052006 C481.175648,52.454494 481.147662,52.5652912 481.147662,52.6760882 C481.147662,53.2023742 481.427508,53.4793668 481.903246,53.4793668 C482.211074,53.4793668 482.43495,53.4239684 482.74278,53.3131712 L482.350998,55.473714 C481.819292,55.7230074 481.119678,55.889203 480.44805,55.889203 C478.685026,55.889203 477.649598,54.9197286 477.649598,53.2577728 C477.649598,52.9530808 477.705568,52.6760882 477.733552,52.343697 L478.768978,46.6653476 C478.852932,46.3329564 478.852932,46.083663 478.852932,45.862069 Z M486.52069,44.8094968 C487.835964,42.5935556 489.934802,41.4024872 492.509378,41.4024872 C496.11938,41.4024872 498.414112,43.673827 498.414112,47.3578292 C498.414112,49.3521764 497.938374,51.1803278 497.070854,52.5929904 C495.727598,54.8089316 493.656744,56 491.054182,56 C487.44418,56 485.14945,53.700961 485.14945,50.044658 C485.14945,48.0780102 485.625186,46.2498586 486.52069,44.8094968 Z M488.56356,49.933861 C488.56356,52.1498022 489.48705,53.4516676 491.16612,53.4516676 C492.369456,53.4516676 493.376898,52.7314868 494.13248,51.401922 C494.69217,50.3216506 495.027984,48.9089882 495.027984,47.4686264 C495.027984,45.2249858 494.104496,43.9508196 492.425424,43.9508196 C491.194106,43.9508196 490.214648,44.6433014 489.459066,46.0005652 C488.899374,47.0254382 488.56356,48.4657998 488.56356,49.933861 Z M516.49211,41.4578858 C516.827924,41.4578858 517.191724,41.485585 517.639476,41.5963822 L516.827924,45.1141888 C516.49211,44.920294 515.904436,44.8094968 515.260792,44.8094968 C513.38583,44.8094968 511.90265,46.388355 511.454898,48.9366874 L510.251562,55.6676088 L506.781482,55.6676088 L509.272104,41.7348784 L512.182494,41.7348784 L512.014588,45.0033918 C512.910092,42.7597512 514.561178,41.4578858 516.49211,41.4578858 Z M525.335218,43.8954212 C524.1039,43.8954212 523.040488,44.615602 522.284906,45.9451668 C522.06103,46.388355 521.893122,46.8592426 521.697232,47.4132278 L527.462042,47.4132278 C527.57398,47.1085358 527.657934,46.7761448 527.657934,46.4160542 C527.657934,44.8371962 526.818398,43.8954212 525.335218,43.8954212 Z M527.182198,51.2357264 L530.008634,52.0667044 C529.00119,54.6150368 526.874368,56 524.04793,56 C520.437928,56 518.087228,53.6732618 518.087228,50.044658 C518.087228,48.1334088 518.562966,46.3052572 519.45847,44.8371962 C520.773742,42.621255 522.956534,41.4024872 525.559094,41.4024872 C528.889252,41.4024872 530.84817,43.4245336 530.84817,46.6099492 C530.84817,47.5794234 530.652278,48.4381006 530.288478,49.2967778 L521.389402,49.2967778 L521.389402,49.7953646 C521.389402,52.0944036 522.396844,53.4239684 524.187854,53.4239684 C525.671034,53.4239684 526.650492,52.7037874 527.182198,51.2357264 Z M537.872284,56 C534.430188,56 532.079488,54.2826456 531.883596,51.6235162 L534.961894,51.1249294 C535.101816,52.7037874 536.193212,53.6455624 537.900268,53.6455624 C539.355462,53.6455624 540.250968,52.9807802 540.250968,51.7897118 C540.250968,51.3742228 540.08306,51.0141322 539.77523,50.7094404 C539.439416,50.4324478 538.711818,50.1000566 537.592438,49.739966 C535.99732,49.21368 534.961894,48.687394 534.458172,48.1057094 C533.926466,47.5240248 533.674606,46.803844 533.674606,45.9451668 C533.674606,44.5879028 534.178326,43.5076314 535.213754,42.6489542 C536.221196,41.8179762 537.53647,41.4024872 539.159572,41.4024872 C542.545698,41.4024872 544.504614,42.9813454 544.504614,45.6404748 L541.51027,45.8897682 C541.51027,44.5602036 540.614766,43.7292256 539.159572,43.7292256 C537.844298,43.7292256 536.948794,44.4217072 536.948794,45.5019786 C536.948794,46.2498586 537.340578,46.6653476 539.551354,47.4132278 C541.174456,47.9395138 542.265852,48.4934992 542.797558,49.0751838 C543.329264,49.6568682 543.60911,50.4047484 543.60911,51.291125 C543.60911,52.6760882 543.077404,53.811758 542.013992,54.6704352 C540.922596,55.5568118 539.551354,56 537.872284,56 Z M553.431676,43.8954212 C552.200358,43.8954212 551.136946,44.615602 550.381364,45.9451668 C550.157488,46.388355 549.98958,46.8592426 549.793688,47.4132278 L555.5585,47.4132278 C555.670438,47.1085358 555.754392,46.7761448 555.754392,46.4160542 C555.754392,44.8371962 554.914856,43.8954212 553.431676,43.8954212 Z M555.278654,51.2357264 L558.10509,52.0667044 C557.097648,54.6150368 554.970824,56 552.144388,56 C548.534386,56 546.183686,53.6732618 546.183686,50.044658 C546.183686,48.1334088 546.659422,46.3052572 547.554928,44.8371962 C548.8702,42.621255 551.052992,41.4024872 553.655552,41.4024872 C556.98571,41.4024872 558.944626,43.4245336 558.944626,46.6099492 C558.944626,47.5794234 558.748734,48.4381006 558.384936,49.2967778 L549.485858,49.2967778 L549.485858,49.7953646 C549.485858,52.0944036 550.493302,53.4239684 552.28431,53.4239684 C553.76749,53.4239684 554.746948,52.7037874 555.278654,51.2357264 Z M570.334326,41.4578858 C570.67014,41.4578858 571.033938,41.485585 571.48169,41.5963822 L570.67014,45.1141888 C570.334326,44.920294 569.74665,44.8094968 569.103006,44.8094968 C567.228044,44.8094968 565.744864,46.388355 565.297112,48.9366874 L564.093778,55.6676088 L560.623698,55.6676088 L563.11432,41.7348784 L566.02471,41.7348784 L565.856802,45.0033918 C566.752308,42.7597512 568.403394,41.4578858 570.334326,41.4578858 Z M572.880916,41.7348784 L576.23906,41.7348784 L577.246502,51.9005088 L577.30247,51.9005088 L583.067282,41.7348784 L586.565346,41.7348784 L578.197976,55.6676088 L574.75588,55.6676088 L572.880916,41.7348784 Z M590.11938,50.044658 C590.11938,52.1221028 591.126824,53.3131712 592.83388,53.3131712 C594.540934,53.3131712 595.856208,51.928208 596.30396,49.629169 C596.667758,47.7179198 596.779696,46.9977388 596.779696,46.6376484 C596.779696,45.0587902 595.74427,43.978519 594.177136,43.978519 C592.917832,43.978519 591.798452,44.726399 591.014886,46.1390616 C590.42721,47.1639344 590.11938,48.576597 590.11938,50.044658 Z M595.884192,53.0084794 C595.016672,54.9197286 593.449538,56 591.462638,56 C590.035428,56 588.860078,55.473714 587.964572,54.3934426 C587.041084,53.3408706 586.593332,51.9559072 586.593332,50.2385528 C586.593332,48.2165066 587.097052,46.2498586 588.07651,44.6986998 C589.30783,42.5935556 591.266746,41.4024872 593.477524,41.4024872 C595.408454,41.4024872 596.919618,42.4827586 597.339386,44.0339174 L598.458768,41.7348784 L601.145282,41.7348784 L599.270318,52.2052006 C599.242334,52.454494 599.21435,52.5652912 599.21435,52.6760882 C599.21435,53.2023742 599.494194,53.4793668 599.969932,53.4793668 C600.277762,53.4793668 600.501638,53.4239684 600.809468,53.3131712 L600.417684,55.473714 C599.885978,55.7230074 599.21435,55.889203 598.542722,55.889203 C596.86365,55.889203 595.856208,54.9751272 595.856208,53.4239684 C595.856208,53.2023742 595.856208,53.1192764 595.884192,53.0084794 Z M608.980946,53.2577728 C609.736528,53.2577728 610.408158,53.0084794 611.219708,52.454494 L611.303662,54.9197286 C610.408158,55.6122102 609.232808,56 607.917534,56 C605.482882,56 604.139624,54.8366308 604.139624,52.7314868 C604.139624,52.4267948 604.195594,52.0944036 604.223578,51.7343132 L605.53885,44.2832108 L603.635904,44.2832108 L604.083656,41.7348784 L606.014588,41.7348784 L606.546294,38.771057 L610.044358,38.3278688 L609.4287,41.7348784 L612.926764,41.7348784 L612.479012,44.2832108 L608.980946,44.2832108 L607.693658,51.3465234 C607.665674,51.6789146 607.63769,51.8728094 607.63769,51.9836066 C607.63769,52.8422838 608.085442,53.2577728 608.980946,53.2577728 Z M616.62072,37.6630864 C616.62072,36.472018 617.572194,35.6133408 618.803512,35.6133408 C620.034832,35.6133408 620.930336,36.4443188 620.930336,37.6353872 C620.930336,38.8541548 619.978862,39.7128322 618.747544,39.7128322 C617.516226,39.7128322 616.62072,38.8818542 616.62072,37.6630864 Z M614.409944,52.343697 L616.31289,41.7348784 L619.754986,41.7348784 L617.880024,52.2052006 C617.85204,52.454494 617.824054,52.5652912 617.824054,52.6760882 C617.824054,53.2023742 618.1039,53.4793668 618.579636,53.4793668 C618.887466,53.4793668 619.111342,53.4239684 619.419172,53.3131712 L619.055374,55.473714 C618.495684,55.7230074 617.79607,55.889203 617.124442,55.889203 C615.361418,55.889203 614.32599,54.9197286 614.32599,53.2577728 C614.32599,52.9530808 614.381958,52.6760882 614.409944,52.343697 Z M623.448944,44.8094968 C624.764216,42.5935556 626.863054,41.4024872 629.43763,41.4024872 C633.047634,41.4024872 635.342364,43.673827 635.342364,47.3578292 C635.342364,49.3521764 634.866626,51.1803278 633.999106,52.5929904 C632.65585,54.8089316 630.584996,56 627.982436,56 C624.372432,56 622.077702,53.700961 622.077702,50.044658 C622.077702,48.0780102 622.553438,46.2498586 623.448944,44.8094968 Z M625.491814,49.933861 C625.491814,52.1498022 626.415302,53.4516676 628.094374,53.4516676 C629.297708,53.4516676 630.30515,52.7314868 631.060732,51.401922 C631.620422,50.3216506 631.956236,48.9089882 631.956236,47.4686264 C631.956236,45.2249858 631.032748,43.9508196 629.353676,43.9508196 C628.122358,43.9508196 627.1429,44.6433014 626.387318,46.0005652 C625.827628,47.0254382 625.491814,48.4657998 625.491814,49.933861 Z M647.403692,45.862069 C647.403692,44.7817976 646.816016,44.2278124 645.696636,44.2278124 C643.793688,44.2278124 642.450432,45.6681742 642.00268,48.3273036 L640.687406,55.6676088 L637.217326,55.6676088 L639.707948,41.7348784 L642.534386,41.7348784 L642.5064,44.504805 C643.485858,42.5381572 645.248884,41.4024872 647.291754,41.4024872 C649.614468,41.4024872 650.98571,42.6766534 650.98571,44.8648954 C650.98571,45.2803844 650.957726,45.6958734 650.873772,46.0559638 L649.754392,52.2052006 C649.726406,52.454494 649.698422,52.5652912 649.698422,52.6760882 C649.698422,53.2023742 649.978268,53.4793668 650.454004,53.4793668 C650.761834,53.4793668 650.98571,53.4239684 651.29354,53.3131712 L650.901756,55.473714 C650.37005,55.7230074 649.670438,55.889203 648.99881,55.889203 C647.235784,55.889203 646.200358,54.9197286 646.200358,53.2577728 C646.200358,52.9530808 646.256326,52.6760882 646.28431,52.343697 L647.319738,46.6653476 C647.403692,46.3329564 647.403692,46.083663 647.403692,45.862069 Z M658.877344,56 C655.435248,56 653.084548,54.2826456 652.888658,51.6235162 L655.966954,51.1249294 C656.106878,52.7037874 657.198274,53.6455624 658.905328,53.6455624 C660.360524,53.6455624 661.256028,52.9807802 661.256028,51.7897118 C661.256028,51.3742228 661.088122,51.0141322 660.780292,50.7094404 C660.444478,50.4324478 659.71688,50.1000566 658.5975,49.739966 C657.002382,49.21368 655.966954,48.687394 655.463234,48.1057094 C654.931528,47.5240248 654.679666,46.803844 654.679666,45.9451668 C654.679666,44.5879028 655.183388,43.5076314 656.218816,42.6489542 C657.226258,41.8179762 658.54153,41.4024872 660.164632,41.4024872 C663.55076,41.4024872 665.509676,42.9813454 665.509676,45.6404748 L662.515332,45.8897682 C662.515332,44.5602036 661.619828,43.7292256 660.164632,43.7292256 C658.84936,43.7292256 657.953856,44.4217072 657.953856,45.5019786 C657.953856,46.2498586 658.345638,46.6653476 660.556416,47.4132278 C662.179518,47.9395138 663.270914,48.4934992 663.80262,49.0751838 C664.334326,49.6568682 664.61417,50.4047484 664.61417,51.291125 C664.61417,52.6760882 664.082466,53.811758 663.019054,54.6704352 C661.927658,55.5568118 660.556416,56 658.877344,56 Z M669.735338,37.1644998 L674.01697,37.1644998 L670.686812,50.2108536 L668.280142,50.2108536 L669.735338,37.1644998 Z M668.923786,51.5404184 C670.23906,51.5404184 671.190532,52.454494 671.190532,53.700961 C671.190532,54.947428 670.23906,55.889203 668.923786,55.889203 C667.608514,55.889203 666.65704,54.947428 666.65704,53.700961 C666.65704,52.454494 667.608514,51.5404184 668.923786,51.5404184 Z"></path>
  </g>
</svg>