<svg xmlns="http://www.w3.org/2000/svg" width="457" heigh="403" viewBox="0 0 457 403"><g fill="none" fill-rule="evenodd"><path fill="#FFF" fill-rule="nonzero" stroke="#474BA5" stroke-linejoin="round" stroke-width="1.25" d="M82.394 400.972V49.887L1 1v345.618z"></path><path fill="#FFF" fill-rule="nonzero" d="M84.07 50.674c26.127-8.224 84.572-15.762 175.336-22.612v7.184l16.509-1.03V41.4h14.355v9.245l-206.2.03z"></path><path stroke="#474BA5" stroke-width="1.25" d="M9.508 32.871v70.927l30.089 17.174V49.415zM46.085 52.477L73.82 67.333m-27.735-7.414L73.82 74.775m-27.735 2.203L73.82 91.834m-27.735-8.73L73.82 97.959m-27.735-8.587L73.82 104.2m-27.735-8.587l27.735 14.827m-27.735-8.587l27.735 14.855m-64.312 2.347l64.312 36.924M9.508 127.87l64.312 36.923M9.508 136.686l64.312 36.923M9.508 145.502l64.312 36.923M9.508 154.317l64.312 36.924M9.508 163.133l64.312 36.924M9.508 171.548l64.312 36.924M9.508 180.364l64.312 36.924M9.508 189.18l47.143 29.024M9.508 324.452v16.315l26.127 17.345v-16.601zM41.75 351.873l32.099 21.295M41.75 359.171l32.07 21.324m-32.07-35.55l32.099 20.552M9.508 248.143l64.312 41.761M9.508 259.106l64.312 41.76m-23.198-4.007l23.198 14.884" opacity=".25"></path><path stroke="#474BA5" stroke-width="1.25" d="M13.279 8.51V1.234l69.699 49.071s150.823-9.052 209.268-9.052v7.505"></path><path stroke="#474BA5" stroke-width="1.25" d="M26.197 10.687V1.35l56.78 48.956c31.176-6.617 194.83-16.214 194.83-16.214v6.474"></path><path stroke="#474BA5" stroke-width="1.25" d="M39.918 12.75V3.812l43.06 46.493a1399.211 1399.211 0 0 1 177.49-23.232v7.219"></path><path fill="#FFF" fill-rule="nonzero" stroke="#474BA5" stroke-linejoin="round" stroke-width="1.25" d="M82.978 50.305h223.909v351.376H82.978z"></path><path stroke="#474BA5" stroke-width="1.25" d="M181.469 140.283c0 25.954-9.129 45.204-18.43 45.204-9.3 0-16.907-20.94-16.907-46.836 0-25.897 7.52-46.866 16.793-46.866 9.272 0 18.544 22.717 18.544 48.498zM141.28 93.676l-29.912 2.291v90.151m-4.277-45.49l25.175-1.92-25.175 1.92zm177.146-.746c0 26.813-9.76 48.527-19.52 48.527s-19.52-21.714-19.52-48.527c0-26.813 7.952-48.297 17.77-48.297 9.817 0 21.242 21.599 21.242 48.44l.028-.143z"></path><path stroke="#474BA5" stroke-width="1.25" d="M284.237 139.882c0 26.813-9.76 48.527-19.52 48.527s-19.52-21.714-19.52-48.527c0-26.813 7.952-48.297 17.77-48.297 9.817 0 21.242 21.599 21.242 48.44l.028-.143zM193.267 185.058l4.88-89.549 14.583 61.332 14.612-61.332 7.119 92.07M120.87 197.576s-19.32-4.469-19.32 38.071c0 41.165 22.047 42.569 22.047 87.773 0 54.428-22.046 50.303-22.046 50.303m178.868-176.147s-19.003-4.469-19.003 38.071c0 41.165 21.76 42.569 21.76 87.773 0 54.428-21.76 50.303-21.76 50.303m-131.618.945l11.138-177.98 12.372 177.98m8.813 0V196.63s16.133 1.633 16.133 67.662c0 66.03-16.133 60.874-16.133 60.874m24.946 49.472V196.631m34.935 177.98h-22.965V197.576h21.731M194.186 291.909l22.965 1.632M226.337 374.639V198.321l25.52 176.29v-177.98M125.061 359.715l29.97-2.407m6.075-284.358h65.25M270.315 385.21h28.132v7.534h-28.132zM390.694 288.515a6.614 6.614 0 0 0-6.614 6.615c0 3.65 2.956 6.61 6.605 6.614a6.614 6.614 0 0 0 6.604-6.606 6.614 6.614 0 0 0-6.595-6.623z"></path><path fill="#474BA5" fill-rule="nonzero" d="M368.82 288.779l-7.557 9.736a6.614 6.614 0 0 1 5.682-10 6.61 6.61 0 0 1 1.875.264zm15.278 5.868a6.614 6.614 0 0 1 6.596-6.132 6.614 6.614 0 0 1 1.861.27l-7.547 9.724a6.576 6.576 0 0 1-.91-2.897v-.965z"></path><path stroke="#474BA5" stroke-width="1.25" d="M362 318.033c-.988-.415-1.64-1.448-1.642-2.6l1.594-33.771c.008-1.164.048-2.662 2.681-2.601l50.512 4.097c1.408 0 2.553 1.234 2.566 2.766v29.5c0 1.542-1.149 2.791-2.566 2.791"></path><path stroke="#474BA5" stroke-linejoin="round" stroke-width="1.25" d="M359.402 318.25l65.67.017h6.517a2.713 2.713 0 0 1 2.713 2.714l3.41 30.81a2.713 2.713 0 0 1-2.713 2.713h-73.532a2.713 2.713 0 0 1-2.721-2.713l-2.057-30.827a2.713 2.713 0 0 1 2.713-2.714zm61.51.017h-55.053 55.052z"></path><path stroke="#474BA5" stroke-width="1.25" d="M432.919 354.504H370.14a18.122 18.122 0 0 0-18.15 18.136 18.138 18.138 0 0 0 18.15 18.127h62.778c10.01 0 18.127-8.114 18.132-18.127a18.129 18.129 0 0 0-18.132-18.136z"></path><path stroke="#474BA5" stroke-width="1.25" d="M436.568 354.504h-70.934c-9.536 0-17.266 7.732-17.266 17.27v.866c0 10.016 8.118 18.136 18.133 18.136h71.8a17.264 17.264 0 0 0 17.266-17.278c-.005-10.491-8.51-18.994-18.999-18.994z"></path><path stroke="#474BA5" stroke-linejoin="round" stroke-width="1.25" d="M366.945 288.515a6.614 6.614 0 0 0-6.613 6.615c0 3.65 2.955 6.61 6.604 6.614a6.613 6.613 0 0 0 6.648-6.614 6.615 6.615 0 0 0-6.639-6.615zM432.303 323.72v5.67h-5.668v-5.67h5.668zm0 7.733v5.67h-5.668v-5.67h5.668zM429.469 344.387a2.835 2.835 0 1 0 0 5.67 2.835 2.835 0 0 0 0-5.67z"></path><path fill="#FFF" fill-rule="nonzero" stroke="#474BA5" stroke-linejoin="round" stroke-width="1.25" d="M422.327 347.976v2.081h-12.403v-2.08h12.403zm0-3.788v2.08h-12.403v-2.08h12.403zm0-3.78v2.08h-12.403v-2.08h12.403zm0-3.788v2.08h-12.403v-2.08h12.403zm0-3.788v2.08h-12.403v-2.08h12.403zm0-9.112v2.08h-12.403v-2.08h12.403z"></path><ellipse cx="394.739" cy="343.625" stroke="#474BA5" stroke-linejoin="round" stroke-width="1.25" rx="6.431" ry="6.432" transform="matrix(-1 0 0 1 789.477 0)"></ellipse><ellipse cx="377.404" cy="343.625" stroke="#474BA5" stroke-linejoin="round" stroke-width="1.25" rx="6.431" ry="6.432" transform="matrix(-1 0 0 1 754.808 0)"></ellipse><path fill="#FFF" fill-rule="nonzero" stroke="#474BA5" stroke-linejoin="round" stroke-width="1.25" d="M400.164 332.832h-28.723 28.723zm0-2.194h-28.723 28.723z"></path><path fill="#FFF" fill-rule="nonzero" d="M360.814 322.715v27.333"></path><path d="M360.814 327.283v20.494"></path><ellipse cx="434.271" cy="368.895" stroke="#474BA5" stroke-width="1.25" rx="12.074" ry="12.076" transform="matrix(-1 0 0 1 868.542 0)"></ellipse><ellipse cx="410.695" cy="376.16" stroke="#474BA5" stroke-width="1.25" rx="12.074" ry="12.076" transform="matrix(-1 0 0 1 821.39 0)"></ellipse><ellipse cx="386.236" cy="376.16" stroke="#474BA5" stroke-width="1.25" rx="12.074" ry="12.076" transform="matrix(-1 0 0 1 772.472 0)"></ellipse><ellipse cx="386.236" cy="376.16" stroke="#474BA5" stroke-width="1.25" rx="8.13" ry="8.132" transform="matrix(-1 0 0 1 772.472 0)"></ellipse><ellipse cx="386.236" cy="376.16" rx="5.244" ry="5.245" transform="matrix(-1 0 0 1 772.472 0)"></ellipse><path stroke="#474BA5" stroke-dasharray="0" stroke-linecap="round" stroke-width="1.25" d="M386.236 381.404a5.244 5.244 0 1 1-.086-10.487 5.244 5.244 0 0 1 .086 10.487z"></path><ellipse cx="410.695" cy="376.16" stroke="#474BA5" stroke-width="1.25" rx="8.13" ry="8.132" transform="matrix(-1 0 0 1 821.39 0)"></ellipse><ellipse cx="410.695" cy="376.16" rx="5.244" ry="5.245" transform="matrix(-1 0 0 1 821.39 0)"></ellipse><path stroke="#474BA5" stroke-dasharray="0" stroke-linecap="round" stroke-width="1.25" d="M410.695 381.404a5.244 5.244 0 1 1-.086-10.487 5.244 5.244 0 0 1 .086 10.487z"></path><ellipse cx="434.271" cy="368.895" stroke="#474BA5" stroke-width="1.25" rx="8.13" ry="8.132" transform="matrix(-1 0 0 1 868.542 0)"></ellipse><ellipse cx="434.271" cy="368.895" stroke="#474BA5" stroke-width="1.25" rx="5.244" ry="5.245" transform="matrix(-1 0 0 1 868.542 0)"></ellipse><ellipse cx="364.957" cy="376.16" stroke="#474BA5" stroke-width="1.25" rx="9.205" ry="9.207" transform="matrix(-1 0 0 1 729.915 0)"></ellipse><ellipse cx="364.957" cy="376.16" stroke="#474BA5" stroke-linejoin="round" stroke-width="1.25" rx="5.244" ry="5.245" transform="matrix(-1 0 0 1 729.915 0)"></ellipse><path fill="#FFF" fill-rule="nonzero" stroke="#474BA5" stroke-linejoin="round" stroke-width="1.25" d="M377.404 339.75v4.438l-3.311-1.734m20.646-2.74v4.44l-2.74 2.089"></path><path stroke="#474BA5" stroke-linejoin="round" stroke-width="1.25" d="M400.164 323.72h-28.697v4.387h28.697z"></path><ellipse cx="398.63" cy="362.827" stroke="#474BA5" stroke-width="1.25" rx="5.807" ry="5.808" transform="matrix(-1 0 0 1 797.26 0)"></ellipse><ellipse cx="398.63" cy="362.827" stroke="#474BA5" stroke-width="1.25" rx="1.638" ry="1.638" transform="matrix(-1 0 0 1 797.26 0)"></ellipse><ellipse cx="373.46" cy="363.269" stroke="#474BA5" stroke-width="1.25" rx="5.989" ry="5.99" transform="matrix(-1 0 0 1 746.92 0)"></ellipse><ellipse cx="425.768" cy="383.65" stroke="#474BA5" stroke-width="1.25" rx="4.62" ry="4.621" transform="matrix(-1 0 0 1 851.536 0)"></ellipse><path stroke="#474BA5" stroke-width="1.25" d="M432.304 321.137h-11.155M370.53 321.137h-11.155M360.343 306.23l57.6-.514m-57.6 2.825H418.2M389 281l2-13"></path></g></svg>