<svg xmlns="http://www.w3.org/2000/svg" viewBox="0 0 596 272"><g fill="none" fill-rule="evenodd"><path stroke="#E3E4F1" stroke-width="1.25" d="M37 3.662h97.863L136.637 1h62.062l1.774 2.662H559c19.882 0 36 16.118 36 36v192.471c0 19.882-16.118 36-36 36H215.156l-1.974 2.662h-39.735l-2.394-2.662h-8.705l-2.66 2.662h-39.01l-2.66-2.662H37c-19.882 0-36-16.118-36-36V39.663c0-19.883 16.118-36 36-36z"></path><path stroke="#474BA5" stroke-width="1.25" d="M26.762 113.864c.054 3.3-1.878 3.33-1.825 6.63.053 3.3 1.985 3.268 2.04 6.568.052 3.297-1.88 3.329-1.826 6.626.053 3.298 1.985 3.267 2.038 6.565.054 3.297-1.879 3.329-1.825 6.626.053 3.296 1.985 3.265 2.039 6.561.053 3.297-1.88 3.328-1.826 6.624"></path><path fill="#FFF" d="M49 14h498v244H49z"></path></g></svg>