<svg xmlns="http://www.w3.org/2000/svg" width="343" height="219" viewBox="0 0 343 219"><g fill="none" fill-rule="evenodd" stroke="#474BA5" stroke-width="1.25"><path d="M1.312 50.91S17.3 24.84 41.57 20.1M9.345 40.474s27.854 0 31.841-19.933c0 .02-27.432-5.084-31.841 19.933zM199.704.762c7.802 16.902-7.285 34.762-7.285 34.762"></path><path d="M197.193 28.234s-6.844-15.98 2.53-27.472c-.02 0 19.841 11.108-2.53 27.472zm95.927 157.467s18.92 28.182 45.682 30.695"></path><path d="M301.305 195.657s4.697-15.098 14.666-7.673c9.968 7.424 14.799 26.36 22.85 28.508 0 0-20.76 2.436-33.049 0-12.288-2.437-20.838-12.432-4.447-20.758m26.78-160.229s12.998-11.3 10.716-15.347c-2.28-4.048-6.633 6.465-5.444 10.417"></path><path stroke-linejoin="round" d="M52.516 150.958s29.886 8.805 44.532 0a126.104 126.104 0 0 0-33.97 2.378s17.58 20.835 33.97-2.378m213.095 41.975l.498 11.127-9.7 1.88m15.643-4.93l.709 7.712-6.652 1.976"></path></g></svg>