
			<svg xmlns="http://www.w3.org/2000/svg" viewBox="0 0 380 400"><g fill="none" fill-rule="evenodd"><path stroke="#474BA5" stroke-width="1.25" d="M111.41 85.572c-8.49-7.69-14.772-24.703-14.772-24.703l-7.677 3.729a94.138 94.138 0 0 1-2.326-18.878c-.698-23.538 9.654-35.773 17.796-41.483C110.83-.307 129.207-6.366 143.048 35c0 0-23.96 73.411-72.348 61.642-2.56-.583-6.398-7.924-8.375-6.525-1.977 1.398 3.14 6.525 5.002 8.972 1.86 2.447-7.096-7.108-9.655-6.06-2.559 1.05 6.049 8.973 7.91 10.371 1.86 1.399-11.98-8.506-11.632-6.175.35 2.33 5.467 7.574 8.491 9.205 3.025 1.631-7.328-3.612-8.025-1.398-.698 2.214 62.112 67.002 135.391-45.329 0 0-9.305-20.624-46.875-24.586"/><path fill="#FFF" fill-rule="nonzero" stroke="#474BA5" stroke-width="1.25" d="M24.142 38.164L67.497 28.2a1.992 1.992 0 0 1 2.344 1.524l3.046 13.246a1.993 1.993 0 0 1-1.523 2.345l-43.355 9.964a1.992 1.992 0 0 1-2.344-1.524L22.62 40.509a1.993 1.993 0 0 1 1.523-2.345zM2.543 42.713l13.877-3.329c1.052-.22 2.082.468 2.313 1.546l3.006 13.435c.215 1.081-.455 2.14-1.503 2.377l-13.877 3.33c-1.052.22-2.081-.468-2.312-1.546L1.04 45.09c-.215-1.082.455-2.14 1.503-2.378z"/><path stroke="#474BA5" stroke-width="1.25" d="M63.045 126.018l17.88-36.783c.206-.481.247-1.02.116-1.527a2.06 2.06 0 0 0-1.045-1.176L63.162 78.66a1.94 1.94 0 0 0-2.555.94l-18.46 36.665a2.377 2.377 0 0 0-.116 1.528c.218.493.583.904 1.045 1.175l17.415 8.109a2 2 0 0 0 2.554-1.058zm21.268-28.361l-10.39 21.568 10.39-21.568zM58.74 83.278l20.78 9.586-20.78-9.586zM45.153 109.64l20.779 10.385-20.78-10.385z"/><ellipse cx="53.944" cy="119.225" stroke="#474BA5" stroke-width="1.25" rx="1.598" ry="1.598"/><path stroke="#474BA5" stroke-width="1.25" d="M66.73 84.077l5.595 2.396M98.699 55.32l2.397 1.597M89.108 25.934s4.568-1.464 7.496-.244c2.928 1.22 6.325 3.171 9.253-.244 4.1-4.757 8.199-5.489 10.424-3.293M93.104 17.98a92.32 92.32 0 0 1 9.59 2.742c3.997 1.62 2.398-5.235 7.993-4.487m25.574 98.805s18.807 18.668 42.14 20.884c0 0 11.494 1.05 14.86-4.667 3.367-5.716-6.152-.116-8.01-.466-1.857-.35 11.377-2.45 11.61-8.634.231-6.183-9.52 4.434-11.842 4.317-2.322-.117 12.654-5.133 11.957-10.5-.696-5.367-7.662 5.017-10.332 5.017-2.67 0 6.385-7.117 4.18-8.517-2.206-1.4-5.805 3.967-8.707 4.55-6.966 1.4-20.432-8.284-22.986-19.367m8.299 35.947l7.992-17.574"/><path stroke="#474BA5" stroke-width="1.25" d="M97.9 11.385s4.113 2.607 5.641 2.607c1.528 0 5.171-2.963 12.693-1.304 7.522 1.66 8.58 9.48 8.462 12.325-.117 2.844-.823 7.229 1.175 7.94M103.494 4.994s2.055 3.085 6.964 2.255c4.91-.831 6.394-2.255 9.02-1.306m-3.996 3.045s6.736 0 9.248 1.902c2.512 1.902 6.508 3.091 7.535.951m-7.193 4.337s3.561 3.245 6.41 2.62a7.558 7.558 0 0 1 5.578 1.374m-7.95 9.083s-.566-7.025 2.49-6.674c3.055.351 9.393 12.178 4.413 16.042-4.98 3.864-7.13-9.133-4.187-8.08l-2.716-1.288zM95.502 46.687s2.554-13.795 20.78-11.97c-.059.113-4.238 15.96-20.78 11.97z"/><path fill="#474BA5" fill-rule="nonzero" d="M109.638 39.68c.83 2.382-.473 4.99-2.96 5.218-2.488.227-5.449-.567-5.567-2.836-.119-2.268.473-4.99 2.842-5.103 2.369-.114 4.856.567 5.685 2.722z"/><path stroke="#474BA5" stroke-width="1.25" d="M101.896 71.296s18.291-9.565 24.775-26.361M87.51 113.633l5.594 4.793m.8-7.19l7.192-1.597m-9.59-7.19l5.594 2.397m7.992-4.793l3.996-2.396m0 8.787l7.193 3.195m-7.193 6.39l-6.393 2.397m22.377-5.592l7.193 1.598m-11.988 7.988v-5.592m0-12.78l4.795-3.995m-5.594-5.591l-6.394-2.397m5.595-5.592l3.996-4.793m3.996 6.391h6.393m1.599 8.787l-1.599 7.19m7.992 1.597h7.193m0-6.39l3.197-3.995m10.39-.798l-4.796-2.397m-13.586-.799v-6.39m-8.791-4.793l-1.599-4.793m8.791 0l5.595-3.994m-6.394-4.793l-1.598-6.39m9.59-3.995l4.795-3.994m-3.996-5.591l-3.196-5.592m10.39 38.343l-3.997 4.793m12.787-5.752l6.394-.639m-9.59-5.591l-1.599-5.592m-8.791-1.598l2.398-3.994m12.787-2.396l3.996-3.994m-9.59-3.994v-6.39m11.188 19.17l7.193 1.598m5.594-10.384l-3.996 1.597M81.116 122.42l1.599-2.396m65.534-5.592v4.793m8.791-2.397l3.996 1.598m-1.598 6.39l.24 5.592m11.748-16.775l-7.992 18.373m-6.394-20.77l.56-5.591m10.629 5.592l-3.197 1.597M91.506 34.55h22.378m-6.394 16.775s6.394-2.087 9.59-7.189m56.53 279.637c-19.904-11.215-29.48-36.88-29.48-36.88l-10.436 3.559c-10.76-34.291 7.424-50.574 20.98-57.368 8.608-4.313 33.461-10.136 52.29 29.331.107 0 8.284 23.94-33.353 61.358-9.576 8.627-25.715 12.832-44.113 1.725-2.797-1.617-8.715-7.548-11.297-6.254-2.582 1.294 4.304 6.254 6.778 8.519 2.475 2.264-9.576-6.794-13.018-5.823-3.443.97 8.176 8.519 10.759 9.813 2.582 1.294-16.247-8.088-15.709-5.823.538 2.264 7.424 7.225 11.513 8.734 4.088 1.51-9.899-3.343-10.867-1.294-.968 2.049 99.092 97.698 159.343-.862 0 0-2.905-63.407-60.144-70.093-4.41 11.107-13.556 13.48-13.556 13.48"/><path stroke="#474BA5" stroke-width="1.25" d="M138 275.399s2.335-12.956 19-11.243c0 0-3.821 14.99-19 11.243z"/><path fill="#474BA5" fill-rule="nonzero" d="M148.774 271.46c.752 2.058-.43 4.312-2.686 4.508-2.256.196-4.834-.49-5.049-2.548-.215-2.058.43-4.312 2.578-4.41 2.149-.098 4.405.49 5.157 2.45z"/><path stroke="#474BA5" stroke-width="1.25" d="M139 260c8.068-4 15.142-4 21 0m-16 20s8.038-.923 11-6M150 296.588s0-4.235 14.105-10.588c3.39 6.353-3.5 16.094-9.731 18M151 300c7.975-4.308 12.345-9.046 13-14"/><path stroke="#474BA5" stroke-linecap="round" stroke-linejoin="round" stroke-width="1.25" d="M168 230l-42.336 1.72L60 272.366l1.08 94.731L94.388 380"/><path stroke="#474BA5" stroke-linecap="round" stroke-linejoin="round" stroke-width="1.25" d="M170 325.946L94.388 380 94 272m-33 81l-28-10.746v-47.499l15.487-11.068L59.882 281M61 272h33.548L141 243"/><path stroke="#474BA5" stroke-width="1.25" d="M171 354v10m-4-2h7m-6-3l3 4m0 0l3-4m13-11v10m-3-2h7m-6-3l3 4m-1 0l3-4m14-5v10m-4-2h7m-6-3l3 4m0 0l3-4m13-13v10m-4-2h7m-5-3l3 4m-1 0l3-4m19-18v10m-4-2h7m-6-4l3 4m0 0l3-4m-5 14v10m-4-2h7m-6-3l3 4m0 0l3-4m-18-27v10m-3-2h7m-6-3l3 4m-1 0l3-4m-23-3v10m-4-2h7m-6-4l3 4m0 0l3-4m-21-1v10m-3-2h7m-6-3l3 4m-1 0l3-4m-17 2v10m-4-2h7m-6-3l3 4m0 0l3-4m-22 5v10m-4-3h7m-6-4l3 4m0 0l3-4m31 17v10m-3-2h7m-6-4l3 4m-1 0l3-4m37-12v10m-3-2h7m-6-3l3 4m-1 0l3-4m27-31v10m-4-2h7m-6-4l3 4m0 0l3-4m-8-23v10m-3-2h7m-6-4l3 4m-1 0l3-4m-7-23v10m-3-2h7m-6-3l3 4m-1 0l3-4m-17 2v10m-3-1h7m-6-4l3 4m-1 0l3-4m-20 2v10m-3-2h7m-7-3l3 4m0 0l3-4m-26-6v10m-3-2h7m-6-3l3 4m-1 0l3-4m8-21v10m-3-2h7m-6-3l3 4m-1 0l3-4m14-8v10m-3-2h7m-6-3l3 4m-1 0l3-4m10-19v10m-4-2h7m-6-3l3 4m0 0l3-4m-23-10v10m-4-2h7m-6-4l3 4m0 0l3-4"/><path fill="#474BA5" fill-rule="nonzero" d="M187.896 237s4.897 8.86-4.896 16.516L192.358 272S204 265.984 204 255.703c-.033 0-9.825-14.547-16.104-18.703z"/><path stroke="#474BA5" stroke-linecap="round" stroke-linejoin="round" stroke-width="1.25" d="M33 295l27-1"/><path fill="#FFF" fill-rule="nonzero" stroke="#474BA5" stroke-width="1.25" d="M65 364l24 8m-24-13l24 8m-24-12l24 8m-24-12l24 7m-24-11l24 6"/><path stroke="#474BA5" stroke-linecap="round" stroke-linejoin="round" stroke-width="1.25" d="M150 332l-24 18m38-34.705s11.767 4.727 13-10.295"/><path stroke="#474BA5" stroke-width="1.25" d="M175.576 264.238s-2.069-6.915 1.634-7.234c3.702-.32 16.986 18.299 9.582 24.15-7.405 5.851-9.8-20.852-4.465-12.873M161.321 274s-2.892 9.761 8.679 17m20 84.898s19.666 3.241 38-26.898m-87-105.534s16.116-11.57 39 2.534m-29-10.801s18.796-5.12 33 5.801m-79 76l16-35m-6 30l16-35"/><path fill="#474BA5" fill-rule="nonzero" d="M286.098 144.32c-.493 3.042-2.703 5.02-5.766 4.574-3.063-.446-5.766-2.458-5.274-5.374.493-2.916 3.316-5.489 6.379-4.905 3.063.583 5.273 2.664 4.66 5.705z"/><path stroke="#474BA5" stroke-width="1.25" d="M275 139.572s6.32-2.571 20 .37c0 0-10.876 4.892-14.62 12.222"/><path stroke="#474BA5" stroke-width="1.25" d="M317.57 201.082a119.12 119.12 0 0 1 0-40.108c3.217-17.576 0-40.109 0-40.109s-4.998-.234-19.807-1.793c-9.17-.96-14.763-11.014-14.763-11.014"/><path stroke="#474BA5" stroke-width="1.25" d="M325.782 190.657a80.975 80.975 0 0 1-1.3-32.083c2.844-16.036 1.3-43.562 1.3-43.562s-11.865-1.312-24.67-2.343c-7.476-.714-10.912-8.62-10.912-8.62m42.89 10.424s1.24 22.392-1.241 38.222c-2.472 16.19 1.24 25.131 1.24 25.131m7.494-53.679c-.949-.838-3.783 8.919-1.539 19.386a73.806 73.806 0 0 1 1.54 16.65M285.4 170.61s10.37-8.123 7.497-16.84M273.4 132.917l1.6 4.01-1.6-4.01zm4.8-1.604l.576 4.812-.576-4.812zm5.6-.802v4.812-4.812zm5.376.802l-.576 4.812.576-4.812zm5.824 1.604l-1.6 3.208 1.6-3.208zm-15.813 70.942L245.76 148.72a4.55 4.55 0 0 0-3.518-2.159 4.69 4.69 0 0 0-3.836 1.56l-30.342 36.087a4.506 4.506 0 0 0-.234 5.514l41.824 58.365a5.055 5.055 0 0 0 3.953 1.912 4.785 4.785 0 0 0 3.718-2.276l21.932-39.313a4.694 4.694 0 0 0-.094-4.551h.024zm-68.987-11.6l35.2-43.303-35.2 43.304zm39.2 56.136l27.2-48.116-27.2 48.116z"/><path stroke="#474BA5" stroke-width="1.25" d="M293.666 161.458c2.076 2.109 1.587 5.078-.489 7.271-2.076 2.194-5 2.606-7.159.497-2.16-2.109-1.706-4.847.37-6.932 2.076-2.084 5.035-3.078 7.278-.836z"/><path stroke="#474BA5" stroke-width="1.25" d="M275.8 114.473a28.255 28.255 0 0 0 11.197 8.973c5.775 2.753 10.961 1.675 22.877 4.194 0 0-4.22 3.713 0 32.552 2.534 17.476 0 48.108 0 48.108M300.6 100.84c0 7.127 17.04 7.481 26.4 7.127m26.355 108.956c.111.916-.332 1.81-1.116 2.247a2.39 2.39 0 0 1-2.511 0c-.768-.454-1.206-1.335-1.117-2.247.144-1.26 1.173-2.208 2.395-2.208s2.25.949 2.394 2.208h-.045zm13.6-.802c.111.916-.332 1.81-1.116 2.247a2.39 2.39 0 0 1-2.511 0c-.768-.454-1.206-1.335-1.117-2.247.144-1.26 1.173-2.208 2.395-2.208s2.25.949 2.394 2.208h-.045zm-1.6-12.831c.111.916-.332 1.81-1.116 2.247a2.39 2.39 0 0 1-2.511 0c-.768-.454-1.206-1.335-1.117-2.247.144-1.26 1.173-2.208 2.395-2.208s2.25.949 2.394 2.208h-.045zm-7.172-11.206a2.232 2.232 0 0 1-1.123 2.23 2.433 2.433 0 0 1-2.526 0 2.313 2.313 0 0 1-1.122-2.23c.106-1.277 1.161-2.251 2.413-2.229 1.197.093 2.174 1.016 2.358 2.23zm6.372-11.248c.111.916-.332 1.81-1.116 2.247a2.39 2.39 0 0 1-2.511 0c-.768-.454-1.206-1.335-1.117-2.247.144-1.26 1.173-2.208 2.395-2.208s2.25.949 2.394 2.208h-.045zm-17.572-12.008a2.232 2.232 0 0 1-1.123 2.229 2.433 2.433 0 0 1-2.526 0 2.313 2.313 0 0 1-1.122-2.229c.106-1.277 1.161-2.251 2.413-2.229 1.183.124 2.144 1.032 2.358 2.23zm3.172 10.404c.111.916-.332 1.81-1.116 2.247a2.39 2.39 0 0 1-2.511 0c-.768-.454-1.206-1.335-1.117-2.247.144-1.26 1.173-2.208 2.395-2.208s2.25.949 2.394 2.208h-.045zm3.2 26.464c.111.916-.332 1.81-1.116 2.247a2.39 2.39 0 0 1-2.511 0c-.768-.454-1.206-1.335-1.117-2.247.144-1.26 1.173-2.208 2.395-2.208s2.25.948 2.394 2.208h-.045zm-12.772-20.027a2.232 2.232 0 0 1-1.123 2.229 2.433 2.433 0 0 1-2.526 0 2.313 2.313 0 0 1-1.122-2.23c.106-1.276 1.161-2.25 2.413-2.228 1.199.088 2.177 1.013 2.358 2.229zm.8 28.067a2.232 2.232 0 0 1-1.123 2.23 2.433 2.433 0 0 1-2.526 0 2.313 2.313 0 0 1-1.122-2.23c.106-1.277 1.161-2.251 2.413-2.228 1.2.083 2.181 1.01 2.358 2.228zm-9.628 7.998c.111.917-.332 1.81-1.116 2.248a2.39 2.39 0 0 1-2.511 0c-.768-.454-1.206-1.335-1.117-2.248.144-1.259 1.173-2.207 2.395-2.207s2.25.948 2.394 2.207h-.045zm-17.6-8.019c.111.916-.332 1.81-1.116 2.247a2.39 2.39 0 0 1-2.511 0c-.768-.454-1.206-1.335-1.117-2.247.144-1.26 1.173-2.208 2.395-2.208s2.25.949 2.394 2.208h-.045zm-17.572 7.239a2.232 2.232 0 0 1-1.123 2.229 2.433 2.433 0 0 1-2.526 0 2.313 2.313 0 0 1-1.122-2.23c.106-1.276 1.161-2.25 2.413-2.228 1.197.092 2.174 1.016 2.358 2.229zm-13.628 2.384c.111.917-.332 1.81-1.116 2.248a2.39 2.39 0 0 1-2.511 0c-.768-.454-1.206-1.335-1.117-2.248.144-1.259 1.173-2.208 2.395-2.208s2.25.949 2.394 2.208h-.045zm24.028-1.582a2.232 2.232 0 0 1-1.123 2.229 2.433 2.433 0 0 1-2.526 0 2.313 2.313 0 0 1-1.122-2.23c.106-1.276 1.161-2.25 2.413-2.228 1.2.084 2.181 1.011 2.358 2.229zm32.8-24.86a2.232 2.232 0 0 1-1.123 2.229 2.433 2.433 0 0 1-2.526 0 2.313 2.313 0 0 1-1.122-2.23c.106-1.276 1.161-2.25 2.413-2.228 1.215.048 2.215.993 2.358 2.229zm-11.228 3.988c.111.917-.332 1.81-1.116 2.247a2.39 2.39 0 0 1-2.511 0c-.768-.453-1.206-1.335-1.117-2.247.144-1.26 1.173-2.208 2.395-2.208s2.25.949 2.394 2.208h-.045zm-3.2 10.425c.111.917-.332 1.81-1.116 2.248a2.39 2.39 0 0 1-2.511 0c-.768-.454-1.206-1.335-1.117-2.248.144-1.259 1.173-2.208 2.395-2.208s2.25.949 2.394 2.208h-.045zm26.428-56.916a2.232 2.232 0 0 1-1.123 2.23 2.433 2.433 0 0 1-2.526 0 2.313 2.313 0 0 1-1.122-2.23c.106-1.277 1.161-2.251 2.413-2.228 1.197.092 2.174 1.015 2.358 2.228z"/><path stroke="#474BA5" stroke-width="1.25" d="M310.452 166.383c-2.507 20.394-14.53 25.764-14.53 25.764a84.14 84.14 0 0 1-17.411-28.38l-6.554 2.265c-11.919-37.93 3.218-54.261 18.227-61.78 9.528-4.774 37.05-11.207 57.9 32.443 0 0-20.489 98.869-78.04 75.018-2.74-.84-14.297-14.908-17.27-13.472-2.975 1.436 5.119 9.06 7.86 11.57 2.74 2.51-13.995-8.172-17.633-7.157-3.639 1.016 10.962 9.783 13.994 11.336 3.032 1.553-19.3-6.923-18.659-4.413.641 2.51 10.962 7.156 15.487 8.826 4.525 1.67-14.53-3.573-15.604-1.168-1.073 2.405 42.53 22.543 117.784 6.678 17.271-3.7 22.997-9.188 22.997-9.188s-5.481-32.559-30.74-77.878"/><path stroke="#474BA5" stroke-width="1.25" d="M295.487 192.26s2.283 2.547 1.86 7.983C296.07 216.941 283 215.485 283 215.485m17.6-26.432c.445 3.876.69 7.795.736 11.724-.095 4.128-.34 8.245-.736 12.334m4-28.87c.548 4.417.794 8.903.736 13.391-.16 6.637-.736 13.875-.736 13.875m-40.8 11.227l6.4 1.604m-4-5.613l6.4 1.604m-4.8-4.812l6.4 1.604"/><path fill="#FFF" fill-rule="nonzero" stroke="#474BA5" stroke-width="1.25" d="M232.33 88.943l41.901-14.818a1.902 1.902 0 0 1 1.485.055c.467.219.821.618.98 1.103l4.577 12.618a1.83 1.83 0 0 1-.055 1.465 1.87 1.87 0 0 1-1.118.966l-41.902 14.818a1.902 1.902 0 0 1-1.486-.055 1.86 1.86 0 0 1-.98-1.102l-4.577-12.619a1.75 1.75 0 0 1 .02-1.482 1.79 1.79 0 0 1 1.154-.949zM212.298 95.815l13.3-4.847c.47-.188.995-.167 1.45.056.456.224.802.631.957 1.126l4.471 12.886a1.945 1.945 0 0 1-.054 1.496c-.217.47-.612.826-1.092.986l-13.3 4.847c-.47.188-.995.168-1.45-.056a1.875 1.875 0 0 1-.957-1.126l-4.471-12.885a1.86 1.86 0 0 1 .018-1.514c.22-.478.633-.832 1.128-.969zM370.155 190.459c.111.916-.332 1.81-1.116 2.247a2.39 2.39 0 0 1-2.511 0c-.768-.454-1.206-1.335-1.117-2.247.144-1.26 1.173-2.208 2.395-2.208s2.25.949 2.394 2.208h-.045zm-12-25.662c.111.917-.332 1.81-1.116 2.247a2.39 2.39 0 0 1-2.511 0c-.768-.453-1.206-1.335-1.117-2.247.144-1.26 1.173-2.208 2.395-2.208s2.25.949 2.394 2.208h-.045zm18.4 41.7c.111.917-.332 1.81-1.116 2.248a2.39 2.39 0 0 1-2.511 0c-.768-.454-1.206-1.335-1.117-2.247.144-1.26 1.173-2.208 2.395-2.208s2.25.948 2.394 2.208h-.045z"/><path stroke="#474BA5" stroke-width="1.25" d="M309.4 127.304l20.8-16.038m-38.4 118.676s40.488 2.35 70.4-64.947"/><path fill="#474BA5" fill-rule="nonzero" d="M312.671 117.681l3.117 2.006h3.847l1.565 3.414 3.247 2.006-.6 3.644 1.553 3.413L323 135l-.6 3.644-3.6 1.061-2.529 2.836-3.6-1.061-3.73 1.061-2.412-2.836-3.717-1.061-.483-3.644-2.529-2.836 1.565-3.413-.483-3.644 3.13-2.006 1.682-3.414h3.73l3.247-2.006z"/><path stroke="#474BA5" stroke-width="1.25" d="M304.6 152.164l3.2-5.613m-64 25.662l-8 28.067m12.8-32.077l-8 28.068"/><path fill="#FFF" fill-rule="nonzero" stroke="#474BA5" stroke-width="1.25" d="M88.097 191.108l44.132-5.105a2.138 2.138 0 0 1 2.224 1.74l1.522 13.344a2.127 2.127 0 0 1-1.756 2.205l-44.132 5.105a2.138 2.138 0 0 1-2.224-1.74l-1.557-13.344a2.07 2.07 0 0 1 1.791-2.205zM66.498 194.052l14.415-1.649a2.16 2.16 0 0 1 2.245 1.767l1.536 13.541a2.156 2.156 0 0 1-1.772 2.237l-14.45 1.649a2.16 2.16 0 0 1-2.245-1.767L64.69 196.29a1.926 1.926 0 0 1 .403-1.52 1.94 1.94 0 0 1 1.404-.717z"/></g></svg>
		</div>
		<div class="fomo-publishers__center">
			<h2 class="fomo-publishers__title mb6">
				Fomo for advertising
			</h2>
			<p class="fomo-publishers__text">
				need more traffic? we can help with that too.
			</p>

			<div class="fomo-publishers__logo">
				<svg xmlns="http://www.w3.org/2000/svg" viewBox="0 0 158 158"><g fill="none" fill-rule="evenodd"><path stroke="#474BA5" stroke-width="4" d="M2 2h154v154H2z"/><path fill="#474BA5" fill-rule="nonzero" d="M47.233 59.28l-2.817-2.817a.47.47 0 0 0-.658 0c-1.173 1.07-2.319 1.728-5.775 1.728H26.997a.47.47 0 0 0-.47.47V69.61c0 .26-.21.47-.47.47H21.25a.47.47 0 0 0-.47.469v4.282c0 .259.21.47.47.47h4.798c.26 0 .47.21.47.469v9.39a.47.47 0 0 0 .47.47h4.281c.26 0 .47-.21.47-.47v-9.39c0-.26.21-.47.47-.47h8.019c.259 0 .47-.21.47-.47V70.55a.47.47 0 0 0-.47-.47h-8.01a.47.47 0 0 1-.47-.47v-5.727c0-.26.21-.47.47-.47h6.949c3.624 0 5.728-1.277 8.056-3.437a.47.47 0 0 0 .01-.695z"/><path fill="#474BA5" fill-rule="nonzero" d="M120.9 57.252a12.996 12.996 0 0 0-5.71 1.202 6.32 6.32 0 0 0-3.559-1.202c-3.653 0-7.099 1.728-9.127 6.076v-5.109a.939.939 0 0 0-.94-.939h-1.708c-3.662 0-6.865 2.085-8.451 6.104v-5.831a.31.31 0 0 0-.31-.31h-2.31a9.015 9.015 0 0 0-8.452 6.188v-5.822a.357.357 0 0 0-.394-.357h-2.338a10.16 10.16 0 0 0-9.785 7.127 11.456 11.456 0 0 0-11.118-7.127c-8.583 0-12.564 6.517-12.564 14.64 0 9.39 4.028 14.639 12.564 14.639 8.32 0 12.564-5.23 12.564-14.64 0-6.01 3.447-8.836 5.634-8.976a.15.15 0 0 1 .16.15v22.142c0 .26.21.47.47.47h4.32c.258 0 .469-.21.469-.47v-6c0-13.42 4.638-15.907 5.634-16.246a.15.15 0 0 1 .188.141v22.105c0 .26.21.47.47.47h4.319c.259 0 .47-.21.47-.47v-6c0-13.504 4.478-15.964 5.633-16.246a.15.15 0 0 1 .179.141v22.105c0 .26.21.47.47.47h4.319c.259 0 .47-.21.47-.47v-6c0-13.57 4.45-16.302 6.497-16.302.449.006.89.108 1.296.3a18.198 18.198 0 0 0-1.953 8.677c0 9.39 4.028 14.64 12.564 14.64 8.357-.01 12.592-5.221 12.592-14.63 0-8.123-4.197-14.64-12.564-14.64zm-64.211 24.02c-5.024 0-6.958-4.216-6.958-9.39s1.878-9.39 6.958-9.39 6.958 4.216 6.958 9.39-1.944 9.381-6.958 9.39zm64.2 0c-5.023 0-6.957-4.216-6.957-9.39s1.878-9.39 6.958-9.39 6.958 4.216 6.958 9.39-1.897 9.381-6.958 9.39zM26.556 99.358v-5.71h2c1.578 0 2.433.583 2.433 1.982 0 1.4-.94 2.057-2.414 2.057h-.939v1.671h-1.08zm1.08-2.517h.845c.94 0 1.4-.272 1.4-1.173 0-.902-.442-1.108-1.39-1.108h-.855v2.281zm11.306.348v-3.54h1.08v3.324c0 1.127.432 1.634 1.409 1.634.976 0 1.408-.507 1.408-1.634v-3.324h1.08v3.54c0 1.803-1.155 2.31-2.488 2.31-1.334 0-2.489-.507-2.489-2.31zm16.743-.742a1.305 1.305 0 0 1 1.324 1.333c0 1.043-.704 1.578-2.132 1.578h-2.385v-5.71h2.31c1.174 0 1.944.498 1.944 1.456a1.174 1.174 0 0 1-1.07 1.296l.009.047zm-.939-.376c.601 0 .939-.234.939-.779s-.45-.78-1.033-.78h-1.08v1.569l1.174-.01zm-1.174 2.433h1.212c.732 0 1.155-.179 1.155-.827 0-.497-.31-.798-1.07-.798H53.57v1.625zm12.893-4.855v4.808h2.817v.939h-3.897v-5.747zm12.029 0v5.709h-1.08v-5.709zm9.212 4.131c.094.639.591.94 1.296.94.704 0 1.126-.226 1.126-.77 0-.545-.197-.714-.892-.864l-.845-.245a1.578 1.578 0 0 1-1.446-1.662c0-1.267 1.052-1.709 2.16-1.709s1.962.451 2.066 1.54l-1.08.104c0-.554-.423-.845-1.08-.845s-1.005.3-1.005.798c0 .497.216.713.798.826l.808.17c.92.069 1.624.85 1.596 1.774 0 1.202-.939 1.662-2.244 1.662-1.305 0-2.056-.488-2.216-1.503l.958-.216zm11.794 1.578v-5.709h1.099v2.469h2.817v-2.469h1.08v5.709h-1.08V97.02h-2.817v2.338zm17.87 0h-4.057v-5.709h4.057v.939h-2.977v1.568h2.61v.883h-2.61v1.455h2.977zm12 0a1.409 1.409 0 0 1-.3-.63l-.188-.76a.855.855 0 0 0-.995-.77h-.94v2.16h-1.08v-5.71h2.264c1.399 0 2.113.555 2.113 1.72a1.343 1.343 0 0 1-1.447 1.427v.046a1.09 1.09 0 0 1 1.155.883l.254.94a1.7 1.7 0 0 0 .366.713l-1.202-.019zm-2.394-3.005h1.042c.808 0 1.118-.272 1.118-.939 0-.667-.348-.939-1.118-.939h-1.042v1.878z"/></g></svg>
			</div>

			<div class="button-group">
        <div class="button-group__wrapper">
          <a href="/advertisers" class="button button--brand-primary button--rounded">
            learn more
          </a>
        </div>
      </div>
		</div>
		<div class="fomo-publishers__right">
			<svg xmlns="http://www.w3.org/2000/svg" viewBox="0 0 380 400"><g fill="none" fill-rule="evenodd" stroke="#474BA5" stroke-width="1.25"><path stroke-linejoin="round" d="M132.213 300.283h-15.9V284.85c-22.863-1.426-40.738-10.906-47.35-25.013l32.875-15.908c1.612 5.003 7.15 8.942 14.475 10.368v-14.47c-16.25-2.326-27.688-6.253-34.126-11.794-6.437-5.54-9.687-13.37-9.687-23.224a35.527 35.527 0 0 1 11.975-27.514c8.025-7.317 18.613-11.606 31.838-12.857v-13.595h15.9v13.407c22.337 1.614 37.875 11.444 43.412 27.702L141.5 202.858c-1.25-3.752-4.287-6.429-9.287-7.867v14.483c15.725 2.138 23.937 4.465 30.55 8.58 9.825 5.715 14.475 14.657 14.475 26.813 0 21.624-17.688 36.644-45 39.683l-.025 15.733z"/><path stroke-linejoin="round" d="M116.313 206.797v-12.694c-5.188.888-7.688 2.864-7.688 6.441 0 2.852 2.5 4.828 7.688 6.253zm15.9 35.394v12.331c5.712-.888 8.037-2.676 8.037-6.44 0-2.677-2.325-4.503-8.037-5.891zM175.625 191.965v12.881l-24.25 8.18"/><path fill="#FFF" fill-rule="nonzero" stroke-linejoin="round" d="M141.5 202.858v7.916"/><path stroke-linejoin="round" d="M72.5 204.809v22.136s0 17.872 20 21.461m-23.525 11.431v16.996s10.338 19.948 47.275 19.948m60.988-51.952v23.137s-1.6 28.765-45.1 28.765"/><path fill="#FFF" fill-rule="nonzero" d="M116.313 194.103a42.803 42.803 0 0 1 15.9.888m-15.9 44.836s9.637 1.013 15.9 2.326"/><path stroke-linejoin="round" d="M78.425 271.78v14.809m2.825-12.382v14.22m0-61.132v16.484m65.387 37.544v14.22m22.6-101.677v12.956M135.9 196.38v13.695m-26.45 28.702v13.245m59.788-63.22c-6.388-16.059-27.738-19.185-27.738-19.185m-8.35 44.723s25 .838 34.9 14.782c2.688 3.752 5.75 13.17 2.837 23.625m-71.924-3.777s3.687 8.68 16.412 10.005m13.575-15.195v8.967m0-54.74v8.979m.475-53.328v9.443m-.475 122.138v7.779"/><path d="M106.813 194.366s-9.076 6.778 2.8 13.757"/><path stroke-linejoin="round" d="M169.338 256.548l-.7 1.45"/><path fill="#FFF" fill-rule="nonzero" d="M295.063 219.817l46.25-10.631a2.125 2.125 0 0 1 2.5 1.626l3.25 14.132a2.126 2.126 0 0 1-1.625 2.501l-46.25 10.631a2.125 2.125 0 0 1-2.5-1.626l-3.25-14.132a2.126 2.126 0 0 1 1.625-2.501z"/><path fill="#FFF" fill-rule="nonzero" stroke-linejoin="round" d="M285.092 204.876h-3.18v-3.125c-4.572-.288-8.147-2.208-9.47-5.064l6.575-3.22c.323 1.012 1.43 1.81 2.896 2.099v-2.93c-3.25-.47-5.538-1.266-6.826-2.388-1.287-1.121-1.937-2.706-1.937-4.701a7.233 7.233 0 0 1 2.395-5.57c1.605-1.482 3.722-2.35 6.368-2.604v-2.752h3.18v2.714c4.467.327 7.575 2.317 8.682 5.609l-6.825 2.208c-.25-.76-.858-1.302-1.858-1.593v2.932c3.146.433 4.788.904 6.11 1.737 1.966 1.157 2.896 2.967 2.896 5.428 0 4.378-3.538 7.42-9 8.034l-.006 3.186z"/><path fill="#FFF" fill-rule="nonzero" stroke-linejoin="round" d="M281.913 185.95v-2.57c-1.038.179-1.538.579-1.538 1.303 0 .577.5.977 1.538 1.266zm3.18 7.165v2.496c1.142-.18 1.607-.542 1.607-1.304 0-.542-.465-.911-1.608-1.192z"/><path stroke-linejoin="round" d="M293.775 182.946v2.608l-4.85 1.656"/><path fill="#FFF" fill-rule="nonzero" stroke-linejoin="round" d="M286.95 185.152v1.602"/><path stroke-linejoin="round" d="M273.15 185.547v4.481s0 3.618 4 4.345m-4.705 2.314v3.441s2.067 4.039 9.455 4.039m12.198-10.518v4.684s-.32 5.824-9.02 5.824"/><path fill="#FFF" fill-rule="nonzero" d="M281.913 183.378a8.56 8.56 0 0 1 3.18.178m-3.18 9.08s1.927.203 3.18.465"/><path d="M281.913 204.876h3.179v2.451h-3.179z"/><path fill="#FFF" fill-rule="nonzero" stroke-linejoin="round" d="M297.842 359.425h-3.18v-3.124c-4.572-.289-8.147-2.208-9.47-5.064l6.575-3.22c.323 1.012 1.43 1.81 2.896 2.098v-2.93c-3.25-.47-5.538-1.265-6.826-2.387-1.287-1.122-1.937-2.707-1.937-4.702a7.233 7.233 0 0 1 2.395-5.57c1.605-1.481 3.722-2.35 6.368-2.603v-2.752h3.18v2.714c4.467.327 7.575 2.317 8.682 5.608l-6.825 2.208c-.25-.76-.858-1.301-1.858-1.592v2.932c3.146.433 4.788.904 6.11 1.737 1.966 1.157 2.896 2.967 2.896 5.428 0 4.378-3.538 7.419-9 8.034l-.006 3.185z"/><path fill="#FFF" fill-rule="nonzero" stroke-linejoin="round" d="M294.663 340.499v-2.57c-1.038.18-1.538.58-1.538 1.304 0 .577.5.977 1.538 1.266zm3.18 7.165v2.497c1.142-.18 1.607-.542 1.607-1.304 0-.542-.465-.912-1.608-1.193z"/><path stroke-linejoin="round" d="M306.525 337.496v2.608l-4.85 1.656"/><path fill="#FFF" fill-rule="nonzero" stroke-linejoin="round" d="M299.7 339.701v1.603"/><path stroke-linejoin="round" d="M285.9 340.096v4.482s0 3.618 4 4.345m-4.705 2.314v3.44s2.067 4.04 9.455 4.04m12.198-10.518v4.684s-.32 5.823-9.02 5.823"/><path fill="#FFF" fill-rule="nonzero" d="M294.663 337.928a8.56 8.56 0 0 1 3.18.178m-3.18 9.08s1.927.202 3.18.465"/><path d="M294.663 359.425h3.179v2.451h-3.179z"/><path fill="#FFF" fill-rule="nonzero" stroke-linejoin="round" d="M33.843 31.425h-3.18v-3.124c-4.573-.289-8.148-2.208-9.47-5.064l6.574-3.22c.323 1.012 1.43 1.81 2.896 2.098v-2.93c-3.25-.47-5.538-1.265-6.826-2.387-1.287-1.122-1.937-2.707-1.937-4.702a7.233 7.233 0 0 1 2.395-5.57c1.605-1.481 3.722-2.35 6.367-2.603V1.171h3.18v2.714c4.468.327 7.575 2.317 8.683 5.608L35.7 11.701c-.25-.76-.858-1.301-1.858-1.592v2.932c3.145.433 4.788.904 6.11 1.737 1.965 1.157 2.895 2.967 2.895 5.428 0 4.378-3.537 7.419-9 8.034l-.005 3.185z"/><path fill="#FFF" fill-rule="nonzero" stroke-linejoin="round" d="M30.663 12.499v-2.57c-1.038.18-1.538.58-1.538 1.304 0 .577.5.977 1.538 1.266zm3.18 7.165v2.497c1.142-.18 1.607-.542 1.607-1.304 0-.542-.465-.912-1.608-1.193z"/><path stroke-linejoin="round" d="M42.525 9.496v2.608l-4.85 1.656"/><path fill="#FFF" fill-rule="nonzero" stroke-linejoin="round" d="M35.7 11.701v1.603"/><path stroke-linejoin="round" d="M21.9 12.096v4.482s0 3.618 4 4.345m-4.705 2.314v3.44s2.067 4.04 9.455 4.04m12.197-10.518v4.684s-.32 5.823-9.02 5.823"/><path fill="#FFF" fill-rule="nonzero" d="M30.663 9.928a8.56 8.56 0 0 1 3.18.178m-3.18 9.08s1.927.202 3.18.465"/><path d="M30.663 31.425h3.18v2.451h-3.18z"/><path fill="#FFF" fill-rule="nonzero" d="M272.688 224.97l15-3.503a2.125 2.125 0 0 1 2.5 1.626l3.25 14.133a2.126 2.126 0 0 1-1.625 2.5l-15 3.503a2.125 2.125 0 0 1-2.5-1.626l-3.25-14.133a2.126 2.126 0 0 1 1.625-2.5zM80.662 365.704l47.125-5.502a2.288 2.288 0 0 1 2.375 1.876l1.625 14.382a2.288 2.288 0 0 1-1.875 2.376l-47.125 5.503a2.288 2.288 0 0 1-2.375-1.876l-1.662-14.382a2.226 2.226 0 0 1 1.912-2.377zM57.913 368.33l15.25-1.75a2.288 2.288 0 0 1 2.374 1.876l1.625 14.382a2.288 2.288 0 0 1-1.875 2.376L60 386.965a2.288 2.288 0 0 1-2.375-1.876L56 370.707a2.052 2.052 0 0 1 1.913-2.376z"/><path fill="#FFF" fill-rule="nonzero" stroke-linejoin="round" d="M66.843 344.425h-3.18v-3.124c-4.573-.289-8.148-2.208-9.47-5.064l6.575-3.22c.322 1.012 1.43 1.81 2.895 2.098v-2.93c-3.25-.47-5.538-1.265-6.825-2.387-1.288-1.122-1.938-2.707-1.938-4.702a7.233 7.233 0 0 1 2.395-5.57c1.605-1.481 3.722-2.35 6.367-2.603v-2.752h3.18v2.714c4.468.327 7.576 2.317 8.683 5.608l-6.825 2.208c-.25-.76-.858-1.301-1.858-1.592v2.932c3.145.433 4.788.904 6.11 1.737 1.966 1.157 2.895 2.967 2.895 5.428 0 4.378-3.537 7.419-9 8.034l-.004 3.185z"/><path fill="#FFF" fill-rule="nonzero" stroke-linejoin="round" d="M63.663 325.499v-2.57c-1.038.18-1.538.58-1.538 1.304 0 .577.5.977 1.538 1.266zm3.18 7.165v2.497c1.142-.18 1.607-.542 1.607-1.304 0-.542-.465-.912-1.608-1.193z"/><path stroke-linejoin="round" d="M75.525 322.496v2.608l-4.85 1.656"/><path fill="#FFF" fill-rule="nonzero" stroke-linejoin="round" d="M68.7 324.701v1.603"/><path stroke-linejoin="round" d="M54.9 325.096v4.482s0 3.618 4 4.345m-4.705 2.314v3.44s2.068 4.04 9.455 4.04m12.197-10.518v4.684s-.32 5.823-9.02 5.823"/><path fill="#FFF" fill-rule="nonzero" d="M63.663 322.928a8.56 8.56 0 0 1 3.18.178m-3.18 9.08s1.927.202 3.18.465"/><path d="M63.663 344.425h3.18v2.451h-3.18z"/><path fill="#FFF" fill-rule="nonzero" d="M310.415 373.143l44.625-16.008a2 2 0 0 1 2.625 1.25l4.875 13.633a2.002 2.002 0 0 1-1.25 2.626l-44.625 16.008a2 2 0 0 1-2.625-1.25l-4.875-13.632a1.914 1.914 0 0 1 1.25-2.627zm-264-328L91.04 29.135a2 2 0 0 1 2.625 1.25l4.875 13.633a2.002 2.002 0 0 1-1.25 2.626L52.665 62.652a2 2 0 0 1-2.625-1.25L45.165 47.77a1.914 1.914 0 0 1 1.25-2.627zM288.415 381.263l14.5-5.128a2 2 0 0 1 2.625 1.25l4.875 13.633a2.002 2.002 0 0 1-1.25 2.626l-14.5 5.128a2 2 0 0 1-2.625-1.251l-4.875-13.632a1.914 1.914 0 0 1 1.25-2.626zm-264-329l14.5-5.128a2 2 0 0 1 2.625 1.25l4.875 13.633a2.002 2.002 0 0 1-1.25 2.626l-14.5 5.128a2 2 0 0 1-2.625-1.251l-4.875-13.632a1.914 1.914 0 0 1 1.25-2.626zM192.925 198.243l64.05-20.398-64.05 20.398zm0-35.018l42.15-26.339-42.15 26.339zm-26.55-17.847l33.137-38.12-33.137 38.12zm-20.463-13.444l11.875-30.028-11.875 30.028zm-89.775 66.309L.213 177.845l55.925 20.398zm4.175-32.404l-46.337-28.953 46.337 28.953zm22.376-20.46l-23.2-25.064 23.2 25.063zm20.45-13.445l-13.376-27.077 13.376 27.077zm21.237-6.191V91v34.743zm89.262 55.854l20.513-8.98-20.513 8.98zm-14.987-43.66l13.662-12.019-13.662 12.019zm-25.125-14.545l9.612-14.72-9.612 14.72zm-125.575 1.1l19.063 15.984-19.063-15.984zm-14.413 36.67l24.6 12.83-24.6-12.83zM7.726 220.566l44.5 5.003-44.5-5.003zm187.525 4.74l50.775-5.99-50.775 5.99zm6.8-9.493l27.6-4.64-27.6 4.64zm-178.3-5.402l25.05 5.665-25.05-5.665zm52.638-105.555L87.9 121.566l-11.513-16.709z"/><path d="M116.313 300.283h15.9v12.106h-15.9z"/></g></svg>